<svg xmlns="http://www.w3.org/2000/svg" viewBox="0 0 500 418"><g id="background-complete"><rect y="382.4" width="500" height="0.25" style="fill:#ebebeb"></rect><rect x="416.78" y="398.49" width="33.12" height="0.25" style="fill:#ebebeb"></rect><rect x="322.53" y="401.21" width="8.69" height="0.25" style="fill:#ebebeb"></rect><rect x="396.59" y="389.21" width="19.19" height="0.25" style="fill:#ebebeb"></rect><rect x="52.46" y="390.89" width="43.19" height="0.25" style="fill:#ebebeb"></rect><rect x="104.56" y="390.89" width="6.33" height="0.25" style="fill:#ebebeb"></rect><rect x="131.47" y="395.11" width="93.68" height="0.25" style="fill:#ebebeb"></rect><path d="M237,337.8H43.91a5.71,5.71,0,0,1-5.7-5.71V60.66A5.71,5.71,0,0,1,43.91,55H237a5.71,5.71,0,0,1,5.71,5.71V332.09A5.71,5.71,0,0,1,237,337.8ZM43.91,55.2a5.46,5.46,0,0,0-5.45,5.46V332.09a5.46,5.46,0,0,0,5.45,5.46H237a5.47,5.47,0,0,0,5.46-5.46V60.66A5.47,5.47,0,0,0,237,55.2Z" style="fill:#ebebeb"></path><path d="M453.31,337.8H260.21a5.72,5.72,0,0,1-5.71-5.71V60.66A5.72,5.72,0,0,1,260.21,55h193.1A5.71,5.71,0,0,1,459,60.66V332.09A5.71,5.71,0,0,1,453.31,337.8ZM260.21,55.2a5.47,5.47,0,0,0-5.46,5.46V332.09a5.47,5.47,0,0,0,5.46,5.46h193.1a5.47,5.47,0,0,0,5.46-5.46V60.66a5.47,5.47,0,0,0-5.46-5.46Z" style="fill:#ebebeb"></path><polygon points="281.89 108.03 331.34 79.27 369.45 79.27 419.72 106.67 419.72 293.13 281.89 293.13 281.89 108.03" style="fill:#e0e0e0"></polygon><path d="M421.14,293.13H281.89V108l1.42-1.36a98,98,0,0,1,68.2-27.4h0a98,98,0,0,1,68.21,27.4l1.42,1.36Zm-130-9.24H411.9V112a89.33,89.33,0,0,0-120.77,0Z" style="fill:#fafafa"></path><polygon points="348.05 285 354.98 285 354.98 223.12 413.65 223.12 413.65 216.19 354.98 216.19 354.98 152.91 413.65 152.91 413.65 145.98 354.98 145.98 354.98 87.31 348.05 87.31 348.05 145.98 289.38 145.98 289.38 152.91 348.05 152.91 348.05 216.19 289.38 216.19 289.38 223.12 348.05 223.12 348.05 285" style="fill:#f0f0f0"></polygon><path d="M425.75,297.74H277.27V106.15l1.36-1.35a103.19,103.19,0,0,1,145.77,0l1.35,1.35Zm-139.24-9.23h130V110a94,94,0,0,0-130,0Z" style="fill:#f0f0f0"></path><rect x="51.12" y="205.04" width="143.99" height="7.4" style="fill:#e0e0e0"></rect><rect x="57.74" y="167.21" width="7.29" height="37.82" style="fill:#ebebeb"></rect><rect x="92.99" y="167.21" width="7.29" height="37.82" style="fill:#ebebeb"></rect><polygon points="145.62 203.54 138.43 205.04 133.11 167.76 140.29 166.27 145.62 203.54" style="fill:#ebebeb"></polygon><rect x="66.78" y="172.2" width="7.29" height="32.84" style="fill:#ebebeb"></rect><rect x="83.53" y="172.2" width="7.29" height="32.84" style="fill:#ebebeb"></rect><rect x="125.82" y="172.2" width="7.29" height="32.84" style="fill:#ebebeb"></rect><polygon points="115.75 203.13 108.64 205.04 102.74 172.98 109.85 171.07 115.75 203.13" style="fill:#ebebeb"></polygon><rect x="76.72" y="165.34" width="3.64" height="39.7" style="fill:#ebebeb"></rect><rect x="120.08" y="165.34" width="3.64" height="39.7" style="fill:#ebebeb"></rect><rect x="145.61" y="193.2" width="35" height="11.65" style="fill:#ebebeb"></rect><rect x="51.12" y="266.9" width="143.99" height="7.4" transform="translate(246.22 541.19) rotate(180)" style="fill:#e0e0e0"></rect><rect x="180.85" y="222.51" width="7.63" height="44.39" transform="translate(369.32 489.4) rotate(180)" style="fill:#ebebeb"></rect><rect x="143.94" y="222.51" width="7.63" height="44.39" transform="translate(295.51 489.4) rotate(180)" style="fill:#ebebeb"></rect><polygon points="96.47 265.14 103.99 266.89 109.57 223.15 102.05 221.4 96.47 265.14" style="fill:#ebebeb"></polygon><rect x="171.39" y="228.36" width="7.63" height="38.54" transform="translate(350.41 495.25) rotate(180)" style="fill:#ebebeb"></rect><rect x="153.85" y="228.36" width="7.63" height="38.54" transform="translate(315.32 495.25) rotate(180)" style="fill:#ebebeb"></rect><rect x="109.57" y="228.36" width="7.63" height="38.54" transform="translate(226.76 495.25) rotate(180)" style="fill:#ebebeb"></rect><polygon points="127.74 264.66 135.19 266.89 141.37 229.28 133.92 227.03 127.74 264.66" style="fill:#ebebeb"></polygon><rect x="164.79" y="220.3" width="3.82" height="46.59" transform="translate(333.39 487.2) rotate(180)" style="fill:#ebebeb"></rect><rect x="119.39" y="220.3" width="3.82" height="46.59" transform="translate(242.6 487.2) rotate(180)" style="fill:#ebebeb"></rect><path d="M72.7,254.16s1-6.72-3.88-11-4.47-6.88-3.07-7.21,2.69,4,4.85,5.16c0,0,.07-6.14-2.12-8.4s-3.34-8.09-1.26-8.19,2.3,3.46,2.73,6,2.75,6.09,2.75,6.09.45-5.5,1.87-7.76-2.36-7.43-.9-9.69,4,2,3.82,6.89S74,236,74.8,241.09c0,0,1.42-3.56,2.7-3.88s2.58-2.67,3.44-3.54,1.94,2.14,0,4.94S74,248.9,74.8,255Z" style="fill:#e6e6e6"></path><path d="M69.77,251.11l-1.6,10.07a5.11,5.11,0,0,0,5,5.92h1.72a5.11,5.11,0,0,0,5-5.92l-1.6-10.07Z" style="fill:#e6e6e6"></path></g><g id="background-simple"><path d="M145.11,207.78c33.57-2.83,64.19-22.4,88.92-48.34,108.73-134.3,308.11-20,180.17,146.42-62.34,86.29-139.81,97.95-218.83,98C36.36,412.35,26.91,275,44.75,236.32,63.09,198.42,112.87,211.47,145.11,207.78Z" style="fill:#e5261f"></path><path d="M145.11,207.78c33.57-2.83,64.19-22.4,88.92-48.34,108.73-134.3,308.11-20,180.17,146.42-62.34,86.29-139.81,97.95-218.83,98C36.36,412.35,26.91,275,44.75,236.32,63.09,198.42,112.87,211.47,145.11,207.78Z" style="fill:#fff;opacity:0.9"></path></g><g id="Character"><path d="M303.24,241.74c-9.34-1.42-17.79,7.56-23.94,5.62a24.94,24.94,0,0,0-17.65-.77c-4.79,2.89-10.37,4.06-16.34,4.36,1.17-4.55,1.14-10.08.44-16.16-2.65-1.48-4.82-5.62-6.72-11.22,2-5.52-.15-18.12-2.19-30.59H302Z" style="fill:#263238"></path><path d="M303.24,241.74c-9.34-1.42-17.79,7.56-23.94,5.62a24.94,24.94,0,0,0-17.65-.77c-4.79,2.89-10.37,4.06-16.34,4.36,1.17-4.55,1.14-10.08.44-16.16-2.65-1.48-4.82-5.62-6.72-11.22,2-5.52-.15-18.12-2.19-30.59H302Z" style="fill:#fff;opacity:0.4"></path><polygon points="249.23 415.01 364.71 415.01 352.98 375.29 247.73 375.29 249.23 415.01" style="fill:#e5261f"></polygon><polygon points="249.23 415.01 364.71 415.01 352.98 375.29 247.73 375.29 249.23 415.01" style="isolation:isolate;opacity:0.2"></polygon><path d="M261.65,255.9c22.56-8.7,40.39-7.42,63.58-2.7,15,3.05,29.35,18,31.11,37.18,5.63,61.28,7.11,70.88,16.07,112.08l-106.17,2c-8.91-44.43-25.41-76.7-28.46-118.19C236.68,271.45,251,260,261.65,255.9Z" style="fill:#e5261f"></path><path d="M261.65,255.9c22.56-8.7,40.39-7.42,63.58-2.7,15,3.05,29.35,18,31.11,37.18,5.63,61.28,7.11,70.88,16.07,112.08l-106.17,2c-8.91-44.43-25.41-76.7-28.46-118.19C236.68,271.45,251,260,261.65,255.9Z" style="fill:#fff;opacity:0.7000000000000001"></path><polygon points="239.92 270.2 193.9 348.92 219.75 363.23 257.67 300.53 239.92 270.2" style="fill:#e5261f"></polygon><polygon points="207.95 324.9 212.92 316.39 215.05 341.42 207.95 324.9" style="opacity:0.2"></polygon><path d="M178.56,308.17l17.25,47c2.1,7.15,10,16.6,19.24,11.93s5.79-11.62,2.82-19.74L196.44,302.6Z" style="fill:#e5261f"></path><path d="M238.11,300.09c-1.51,2.21-9,28.86-4.66,40.49,0,0,9.35-16.25,13.27-21.95S238.11,300.09,238.11,300.09Z" style="opacity:0.2"></path><path d="M309.26,253.22S296.09,277.11,278,285c-11.09-4.79-9.58-23.11-9.58-23.11a7.75,7.75,0,0,0,2.17-2.43c2.24-4-.39-9-4.36-13l19.19-15.19,4.31-3.4C292.84,237.09,301.73,248.65,309.26,253.22Z" style="fill:#eec1bb"></path><path d="M285.93,245.79c-1.2,4.42-6.35,12.39-15.33,13.67,2.24-4-.39-9-4.36-13l19.19-15.19C285.93,233.29,286.92,242.27,285.93,245.79Z" style="opacity:0.2"></path><path d="M263.32,257c.59-1.26-2.31-3-3.53-2.55-21.27,8.48-27.68,26-26.11,40.14C237,324.79,248.58,331,244.93,415h13.69C273.29,320.43,248.72,287.64,263.32,257Z" style="fill:#e5261f"></path><path d="M216.9,308.73a4.05,4.05,0,0,1-4-4.42,4.68,4.68,0,0,1,1.49-3.79,3.41,3.41,0,0,0,1.16-2.81c0-3.39-2.94-6.23-3-6.26l.58-.61c.13.12,3.24,3.11,3.24,6.87a4.23,4.23,0,0,1-1.39,3.39,3.87,3.87,0,0,0-1.26,3.21c0,3.51,3,3.57,3.11,3.57Z" style="fill:#263238"></path><path d="M177.73,302.65s8.11-11.41,10.75-14c4.9-4.78,6.09,3.71,6.09,3.71l6.33-1.65,5.2-2.06,4.76.7-8.67,4.47-8.44,3.56L190,303.17Z" style="fill:#ffc3bd"></path><path d="M212.5,290.83c.18.51.5.87.71.79s.22-.46.08-.92h0v0l0-.1a.54.54,0,0,0-.05-.11l-6.75-18.69Zm.66-.09c.11.32.09.61,0,.66s-.34-.18-.45-.5-.08-.62.05-.66S213.06,290.42,213.16,290.74Z" style="fill:#263238"></path><path d="M212.5,290.83c.18.51.5.87.71.79s.22-.46.08-.92h0v0l0-.1a.54.54,0,0,0-.05-.11l-6.75-18.69Zm.66-.09c.11.32.09.61,0,.66s-.34-.18-.45-.5-.08-.62.05-.66S213.06,290.42,213.16,290.74Z" style="fill:#fff;opacity:0.4"></path><path d="M177.73,302.65l14-18.08,12,23.17A33.23,33.23,0,0,1,188,313.59a9.45,9.45,0,0,1-10.34-9.67Z" style="fill:#ffc3bd"></path><path d="M210.52,299.22c.39.7-1.27,3.6-2.14,4.16L205,306.51l-1.34,1.23-1.37-2.57-6.22-11.68,12.78-4C210.58,292.24,210.52,299.22,210.52,299.22Z" style="fill:#ffc3bd"></path><path d="M191.7,284.57l7.41-5.55,9.56,2.28,3.71,3.65c-1.79,2-3.54,1.51-5.27,0-1.92-.11-4.51-.44-5.76-1.15a47.91,47.91,0,0,1-7.45,5.65Z" style="fill:#ffc3bd"></path><path d="M196.06,293.49l9.56-3.74a14.14,14.14,0,0,0,3.71-.3c2.1.37,3.6-.16,4-2.26l-4.12-1.77-6.45.48-8.9,3.55Z" style="fill:#ffc3bd"></path><line x1="212.92" y1="291.04" x2="209.7" y2="331.91" style="fill:#263238"></line><rect x="190.81" y="311.05" width="40.99" height="0.85" transform="translate(-115.71 497.81) rotate(-85.52)" style="fill:#263238"></rect><polygon points="266.24 404.5 265.13 415.01 356.76 414.61 353.71 402.81 266.24 404.5" style="fill:#263238"></polygon><path d="M385.39,415H336.08s-1.28-18.29-7.53-58.29c-1.28-8.05-2.52-16.21-3.7-24.32-4.87-33.82-8.52-66.06-6.77-78.07a3.57,3.57,0,0,1,3.83-3.37c20.91,1.73,39.55,20.49,44.53,49.69.47,2.81,1,6,1.57,9.46,2.3,14.39,5.26,33.74,8.43,52.82C380.79,388.91,381.17,403.23,385.39,415Z" style="fill:#e5261f"></path><path d="M241.1,330.33s2.53-.88,10.82,1.19c4.63,1.15,10.78-.26,17.9-.37,49-.82,46.92-19.68,63.3-51.69l25.68,17.15s-8.47,63.89-36.73,73.2-77-7.51-77-7.51A311,311,0,0,0,241.1,330.33Z" style="isolation:isolate;opacity:0.2"></path><path d="M361,287.51l-.36,1.82-.3,1.41-.63,2.62q-.68,2.55-1.41,4.95c-1,3.24-2,6.36-3.09,9.47-2.22,6.16-4.67,12.13-7.27,18s-5.37,11.61-8.18,17.32l-4.39,8.47a25.47,25.47,0,0,1-6.79,8.33,29.14,29.14,0,0,1-7.8,4.42A44.16,44.16,0,0,1,307.49,367a72.77,72.77,0,0,1-11.24-.25,136.34,136.34,0,0,1-20.13-3.59,217.74,217.74,0,0,1-36.82-12.92,10,10,0,0,1,6.29-18.81l.35.08c11.52,2.57,23.56,5.06,35.07,6.64a138.72,138.72,0,0,0,16.78,1.36,58.61,58.61,0,0,0,7.39-.37,15.21,15.21,0,0,0,4.87-1.26c.4-.21.48-.34.25-.21a3.25,3.25,0,0,0-1,1.14l3.71-8.32c2.48-5.53,4.89-11.09,7.22-16.62s4.61-11.05,6.71-16.54c1.06-2.72,2.13-5.45,3.05-8.13.48-1.34.92-2.67,1.33-3.95l.62-1.87.27-.85.11-.36c0-.1.07-.26.05-.1A14.57,14.57,0,0,1,361,287.51Z" style="fill:#e5261f"></path><path d="M216.2,410.15c-6.73-7.25-20.06,4-20.06-6.19l3.68-64.77,11.12-7.55c2.73,0,5.82,7.29,8.81,12.5Z" style="fill:#e5261f"></path><path d="M216.2,410.15c-6.73-7.25-20.06,4-20.06-6.19l3.68-64.77,11.12-7.55c2.73,0,5.82,7.29,8.81,12.5Z" style="opacity:0.2"></path><path d="M240.79,332.09l-22.72-1.76,9.8,24.8a33.17,33.17,0,0,0,14.57-8.1,9.45,9.45,0,0,0-.66-14.15Z" style="fill:#ffc3bd"></path><polygon points="204.18 346.29 207.95 353.2 219.25 357.13 227.87 355.13 218.07 330.33 210.94 340.21 204.18 346.29" style="fill:#ffc3bd"></polygon><polygon points="218.07 330.33 207.69 333.48 200.96 339.95 202.87 344.14 209.85 339.19 218.98 340.58 218.07 330.33" style="fill:#ffc3bd"></polygon><path d="M210.94,331.64s-4.49,4.06-4.64,6.66.57,2.22,1.39,3.56S209,401.38,209,401.38c-6.33,2.58-11.37-1.91-12.9,2.58,0,0,3.65-62.81,3.68-64.77s4.6-6.05,7.87-6.86Z" style="fill:#e5261f"></path><path d="M210.94,331.64s-4.49,4.06-4.64,6.66.57,2.22,1.39,3.56S209,401.38,209,401.38c-6.33,2.58-11.37-1.91-12.9,2.58,0,0,3.65-62.81,3.68-64.77s4.6-6.05,7.87-6.86Z" style="fill:#fff;opacity:0.30000000000000004"></path><path d="M201,402s-1-40.88,1.27-42.21S206.85,402,206.85,402A18.52,18.52,0,0,1,201,402Z" style="opacity:0.2"></path><path d="M206.28,339.1s-5.76-1.24-5.1.38S208,345,208,345a24.8,24.8,0,0,0-.28-3.07,3.14,3.14,0,0,0-.6-.81A2.17,2.17,0,0,1,206.28,339.1Z" style="opacity:0.2"></path><path d="M259.26,174.64C239.45,180,236,192.34,240,213.14c.1.54.32,1.6.32,1.6-6.94,15.35,12.43,40.56,38.63,28.84C311.55,229,292.15,165.73,259.26,174.64Z" style="fill:#eec1bb"></path><path d="M252.53,208.57a43.17,43.17,0,0,1-3.54,9.77,5.64,5.64,0,0,0,5.83.83Z" style="fill:#d4827d"></path><path d="M264.22,203.66c.4,1.64,1.61,2.75,2.7,2.48s1.65-1.81,1.25-3.45-1.61-2.75-2.71-2.48S263.81,202,264.22,203.66Z" style="fill:#263238"></path><path d="M265.94,200.18l-3.91-.52S264.54,202.22,265.94,200.18Z" style="fill:#263238"></path><path d="M243.78,208.33c.4,1.63,1.61,2.74,2.7,2.48s1.65-1.82,1.25-3.46-1.61-2.74-2.71-2.47S243.37,206.69,243.78,208.33Z" style="fill:#263238"></path><path d="M245.5,204.84l-3.91-.52S244.1,206.88,245.5,204.84Z" style="fill:#263238"></path><path d="M269.58,210.4a4.1,4.1,0,0,1-2.26-.15c-2.49-.9-3.42-4-3.46-4.17a.61.61,0,0,1,.41-.75.62.62,0,0,1,.75.41s.8,2.69,2.71,3.38a4.1,4.1,0,0,0,3.67-.83.6.6,0,0,1,.67,1A7.09,7.09,0,0,1,269.58,210.4Z" style="fill:#d4827d"></path><path d="M245.45,215.74a8.87,8.87,0,0,1-2,.16.61.61,0,0,1,0-1.21,4.74,4.74,0,0,0,3.88-1.3,4.8,4.8,0,0,0,.91-3.54.6.6,0,1,1,1.19-.19,6,6,0,0,1-1.18,4.52A5,5,0,0,1,245.45,215.74Z" style="fill:#d4827d"></path><path d="M275.48,221.82a.62.62,0,0,1-.6-.23c-4.28-5.72-12.5-5.15-12.58-5.15a.6.6,0,1,1-.1-1.2c.37,0,9-.61,13.65,5.63a.61.61,0,0,1-.13.84A.53.53,0,0,1,275.48,221.82Z" style="fill:#d4827d"></path><path d="M302.44,180.16l-.23-.58c-5.52-12.32-16.32-13.87-16.32-13.87-3.26-7.41-10.47-8.08-17.63-7.22s-11,7-19.92,6.83-17.33,17-18.93,23.54-1.1,9.8,1.46,12.34,1.2,3.71.76,8c-.29,2.93,6.06,5.59,7-1.18.49,1.73.89,2.76.89,2.76-.21-.95-.39-1.88-.52-2.77-6.28-37.36,35.28-32.2,35.28-32.2,2,13,15.65,26.73,15.65,26.73,6.05,6.13,6,15.37,5.07,20.18a24.09,24.09,0,0,1-1.05,3.72c.8-1.15,3.7,5.62,3.7,5.62l5.58,9.71A42.54,42.54,0,0,0,321.53,244c4.07-.59,6.35-3.5,7.87-8.13-4.15-4.83-7.65-10.28-8.71-18-1.28-7.38-4-14.21-9.66-19.93C306.41,191.49,302.69,185.32,302.44,180.16Z" style="fill:#263238"></path><g style="opacity:0.4"><path d="M302.44,180.16l-.23-.58c-5.52-12.32-16.32-13.87-16.32-13.87-3.26-7.41-10.47-8.08-17.63-7.22s-11,7-19.92,6.83-17.33,17-18.93,23.54-1.1,9.8,1.46,12.34,1.2,3.71.76,8c-.29,2.93,6.06,5.59,7-1.18.49,1.73.89,2.76.89,2.76-.21-.95-.39-1.88-.52-2.77-6.28-37.36,35.28-32.2,35.28-32.2,2,13,15.65,26.73,15.65,26.73,6.05,6.13,6,15.37,5.07,20.18a24.09,24.09,0,0,1-1.05,3.72c.8-1.15,3.7,5.62,3.7,5.62l5.58,9.71A42.54,42.54,0,0,0,321.53,244c4.07-.59,6.35-3.5,7.87-8.13-4.15-4.83-7.65-10.28-8.71-18-1.28-7.38-4-14.21-9.66-19.93C306.41,191.49,302.69,185.32,302.44,180.16Z" style="fill:#fff"></path></g><path d="M287.85,207.22c-.73-3.23,1.1-9.52,7.2-10.48,6.32-1,12.66,10.82-1.79,18C291.19,215.75,289.37,214,287.85,207.22Z" style="fill:#eec1bb"></path><path d="M269.83,193a.87.87,0,0,1-.8-.37c-2.55-3.61-7.85-3.33-7.9-3.32a.87.87,0,0,1-.13-1.74h0c.26,0,6.33-.34,9.44,4.07a.88.88,0,0,1-.63,1.37Z" style="fill:#263238"></path><g style="opacity:0.2"><path d="M269.83,193a.87.87,0,0,1-.8-.37c-2.55-3.61-7.85-3.33-7.9-3.32a.87.87,0,0,1-.13-1.74h0c.26,0,6.33-.34,9.44,4.07a.88.88,0,0,1-.63,1.37Z" style="fill:#fff"></path></g><path d="M239.78,198.23a.87.87,0,0,1-.93.08.88.88,0,0,1-.37-1.18c2.71-5.18,6.83-5.84,7-5.87a.87.87,0,0,1,.26,1.73c-.16,0-3.45.61-5.73,4.95A.85.85,0,0,1,239.78,198.23Z" style="fill:#263238"></path><g style="opacity:0.2"><path d="M239.78,198.23a.87.87,0,0,1-.93.08.88.88,0,0,1-.37-1.18c2.71-5.18,6.83-5.84,7-5.87a.87.87,0,0,1,.26,1.73c-.16,0-3.45.61-5.73,4.95A.85.85,0,0,1,239.78,198.23Z" style="fill:#fff"></path></g><path d="M253.23,227.33c-.54,0-1.08,0-1.65-.06a.21.21,0,1,1,0-.42c11.15.8,16-6.86,16.09-6.94a.21.21,0,0,1,.29-.06.21.21,0,0,1,.07.29A17.79,17.79,0,0,1,253.23,227.33Z" style="fill:#263238"></path><path d="M243.65,217a6.8,6.8,0,1,1,6.8-6.8A6.82,6.82,0,0,1,243.65,217Zm0-12.76a6,6,0,1,0,5.95,6A6,6,0,0,0,243.65,204.23Z" style="fill:#263238"></path><path d="M262.94,211.78a6.8,6.8,0,1,1,6.8-6.8A6.81,6.81,0,0,1,262.94,211.78Zm0-12.76a6,6,0,1,0,5.95,6A6,6,0,0,0,262.94,199Z" style="fill:#263238"></path><path d="M250.22,208.65l-.83-.16c0-.07.36-1.77,2.92-2.71a6.2,6.2,0,0,1,4.54,0l-.35.76a5.61,5.61,0,0,0-3.9,0C250.52,207.34,250.23,208.6,250.22,208.65Z" style="fill:#263238"></path><rect x="268.98" y="200.78" width="20.63" height="0.85" transform="translate(-41.79 77.12) rotate(-14.64)" style="fill:#263238"></rect><rect x="80.03" y="401.93" width="338.98" height="15.8" style="fill:#e5261f"></rect><rect x="80.03" y="401.93" width="338.98" height="15.8" style="fill:#fafafa;opacity:0.2"></rect><path d="M424.07,401.93H75.93a4,4,0,0,0-4,3.95h0a4,4,0,0,0,4,3.95H424.07a4,4,0,0,0,3.95-3.95h0A4,4,0,0,0,424.07,401.93Z" style="fill:#e5261f"></path><path d="M424.07,401.93H75.93a4,4,0,0,0-4,3.95h0a4,4,0,0,0,4,3.95H424.07a4,4,0,0,0,3.95-3.95h0A4,4,0,0,0,424.07,401.93Z" style="fill:#fafafa;opacity:0.4"></path></g><g id="Pincushion"><path d="M325.84,361.13h0l0,0-.08.12-.08.15-13.76,23.84,14.8-23.43c.38-.66.47-1.31.21-1.46S326.21,360.58,325.84,361.13Zm.9-.42c.12.06.08.35-.08.63s-.39.45-.5.39-.08-.35.08-.64S326.62,360.64,326.74,360.71Z" style="fill:#263238"></path><path d="M325.84,361.13h0l0,0-.08.12-.08.15-13.76,23.84,14.8-23.43c.38-.66.47-1.31.21-1.46S326.21,360.58,325.84,361.13Zm.9-.42c.12.06.08.35-.08.63s-.39.45-.5.39-.08-.35.08-.64S326.62,360.64,326.74,360.71Z" style="fill:#fff;opacity:0.2"></path><path d="M266.37,354.52h0l0,.05a.75.75,0,0,1,.07.12l.1.14,14.73,23.26-13.89-24c-.4-.63-.94-1-1.19-.86S266.05,353.94,266.37,354.52Zm0-1c.11-.07.34.09.52.37s.22.55.11.62-.35-.09-.52-.36S266.29,353.59,266.41,353.52Z" style="fill:#263238"></path><path d="M266.37,354.52h0l0,.05a.75.75,0,0,1,.07.12l.1.14,14.73,23.26-13.89-24c-.4-.63-.94-1-1.19-.86S266.05,353.94,266.37,354.52Zm0-1c.11-.07.34.09.52.37s.22.55.11.62-.35-.09-.52-.36S266.29,353.59,266.41,353.52Z" style="fill:#fff;opacity:0.2"></path><path d="M293.18,352.42h0v.05a.61.61,0,0,0,0,.14.88.88,0,0,0,0,.17l2.88,27.38-1.8-27.66c-.08-.75-.39-1.33-.69-1.3S293.15,351.76,293.18,352.42Zm.47-.88c.14,0,.27.24.31.56s0,.6-.18.61-.27-.24-.31-.56S293.52,351.56,293.65,351.54Z" style="fill:#263238"></path><path d="M293.18,352.42h0v.05a.61.61,0,0,0,0,.14.88.88,0,0,0,0,.17l2.88,27.38-1.8-27.66c-.08-.75-.39-1.33-.69-1.3S293.15,351.76,293.18,352.42Zm.47-.88c.14,0,.27.24.31.56s0,.6-.18.61-.27-.24-.31-.56S293.52,351.56,293.65,351.54Z" style="fill:#fff;opacity:0.2"></path><path d="M314.62,357.48h0l0,0-.06.12-.06.16-11,25.26,12-25c.3-.69.32-1.35,0-1.48S314.92,356.89,314.62,357.48Zm.84-.53c.12.05.12.34,0,.63s-.33.5-.45.45-.12-.34,0-.64S315.34,356.9,315.46,357Z" style="fill:#263238"></path><path d="M314.62,357.48h0l0,0-.06.12-.06.16-11,25.26,12-25c.3-.69.32-1.35,0-1.48S314.92,356.89,314.62,357.48Zm.84-.53c.12.05.12.34,0,.63s-.33.5-.45.45-.12-.34,0-.64S315.34,356.9,315.46,357Z" style="fill:#fff;opacity:0.2"></path><rect x="270.49" y="393.73" width="50.93" height="7.7" style="fill:#e5261f"></rect><path d="M321.42,393.73H270.49s-.74-23.86,25.47-23.86S321.42,393.73,321.42,393.73Z" style="fill:#e5261f"></path><path d="M321.42,393.73H270.49s-.74-23.86,25.47-23.86S321.42,393.73,321.42,393.73Z" style="fill:#fff;opacity:0.5"></path><path d="M304.57,350.61h0l0,.07c0,.06,0,.12,0,.19a1.81,1.81,0,0,0,0,.23l-4.41,24.33h.55l5.4-24.29c.19-1,0-1.93-.41-2S304.79,349.72,304.57,350.61Zm1-1c.18,0,.27.42.19.86s-.3.78-.48.75-.27-.42-.19-.87S305.36,349.6,305.55,349.63Z" style="fill:#263238"></path><path d="M304.57,350.61h0l0,.07c0,.06,0,.12,0,.19a1.81,1.81,0,0,0,0,.23l-4.41,24.33h.55l5.4-24.29c.19-1,0-1.93-.41-2S304.79,349.72,304.57,350.61Zm1-1c.18,0,.27.42.19.86s-.3.78-.48.75-.27-.42-.19-.87S305.36,349.6,305.55,349.63Z" style="fill:#fff;opacity:0.2"></path><path d="M279.91,358.55h0l0,.07c0,.06,0,.12,0,.19s0,.15.07.22l6.48,23.86.49-.23-5.56-24.25c-.27-1-.82-1.74-1.23-1.63S279.73,357.65,279.91,358.55Zm.46-1.31c.18-.05.43.27.54.7s.07.83-.11.88-.42-.27-.54-.7S280.19,357.29,280.37,357.24Z" style="fill:#263238"></path><path d="M279.91,358.55h0l0,.07c0,.06,0,.12,0,.19s0,.15.07.22l6.48,23.86.49-.23-5.56-24.25c-.27-1-.82-1.74-1.23-1.63S279.73,357.65,279.91,358.55Zm.46-1.31c.18-.05.43.27.54.7s.07.83-.11.88-.42-.27-.54-.7S280.19,357.29,280.37,357.24Z" style="fill:#fff;opacity:0.2"></path></g><g id="Scissors"><polygon points="398.03 399.39 405.4 360.8 397.22 350.07 393.55 350.69 397.05 358.91 395.17 402.04 398.03 399.39" style="fill:#e5261f"></polygon><polygon points="398.03 399.39 405.4 360.8 397.22 350.07 393.55 350.69 397.05 358.91 395.17 402.04 398.03 399.39" style="fill:#fff;opacity:0.5"></polygon><path d="M392.05,351l6.39-1.09s1.36-21.16,1.11-19.39c-.28,1.94,1.28-10.47-7.6-11.26-6.24-.56-11.53,3-10.47,12.42S391.53,346.3,392.05,351ZM384.67,332c-.75-5.46,1.37-10.26,4.73-10.72s6.7,3.59,7.44,9.05-1.37,10.26-4.73,10.72S385.41,337.5,384.67,332Z" style="fill:#e5261f"></path><path d="M392.05,351l6.39-1.09s1.36-21.16,1.11-19.39c-.28,1.94,1.28-10.47-7.6-11.26-6.24-.56-11.53,3-10.47,12.42S391.53,346.3,392.05,351ZM384.67,332c-.75-5.46,1.37-10.26,4.73-10.72s6.7,3.59,7.44,9.05-1.37,10.26-4.73,10.72S385.41,337.5,384.67,332Z" style="fill:#fff;opacity:0.1"></path><path d="M420.8,334.15c2.73-9.13-1.85-13.53-8.08-14.09-8.88-.81-9.57,11.68-9.49,9.72.07-1.79-2.38,19.27-2.38,19.27l6.09,2.22C408.28,346.78,418.07,343.28,420.8,334.15Zm-12.15,7.4c-3.23-1.05-4.45-6.15-2.74-11.39s5.71-8.63,8.94-7.57,4.45,6.15,2.74,11.39S411.87,342.61,408.65,341.55Z" style="fill:#e5261f"></path><path d="M420.8,334.15c2.73-9.13-1.85-13.53-8.08-14.09-8.88-.81-9.57,11.68-9.49,9.72.07-1.79-2.38,19.27-2.38,19.27l6.09,2.22C408.28,346.78,418.07,343.28,420.8,334.15Zm-12.15,7.4c-3.23-1.05-4.45-6.15-2.74-11.39s5.71-8.63,8.94-7.57,4.45,6.15,2.74,11.39S411.87,342.61,408.65,341.55Z" style="fill:#fff;opacity:0.1"></path><polygon points="392.39 397.85 392.05 358.57 402.02 349.48 405.52 350.75 400.6 358.21 394.73 400.98 392.39 397.85" style="fill:#e5261f"></polygon><polygon points="392.39 397.85 392.05 358.57 402.02 349.48 405.52 350.75 400.6 358.21 394.73 400.98 392.39 397.85" style="fill:#fff;opacity:0.7000000000000001"></polygon><path d="M396,360.33a1.6,1.6,0,1,1,2.27,0A1.6,1.6,0,0,1,396,360.33Z" style="fill:#e5261f"></path><path d="M396,360.33a1.6,1.6,0,1,1,2.27,0A1.6,1.6,0,0,1,396,360.33Z" style="fill:#fff;opacity:0.2"></path><path d="M407.27,362.53h-28v36.74a2.19,2.19,0,0,0,2.28,2.39H405a2.28,2.28,0,0,0,2.29-2.29Z" style="fill:#e5261f"></path><path d="M407.27,362.53h-28v36.74a2.19,2.19,0,0,0,2.28,2.39H405a2.28,2.28,0,0,0,2.29-2.29Z" style="fill:#fff;opacity:0.30000000000000004"></path></g><g id="Thread"><path d="M171.38,363H146.8a3.35,3.35,0,0,1-3.35-3.35h0a3.35,3.35,0,0,1,3.35-3.34h24.58a3.35,3.35,0,0,1,3.35,3.34h0A3.35,3.35,0,0,1,171.38,363Z" style="fill:#263238"></path><path d="M171.38,401.74H146.8a3.35,3.35,0,0,1-3.35-3.34h0a3.35,3.35,0,0,1,3.35-3.35h24.58a3.35,3.35,0,0,1,3.35,3.35h0A3.35,3.35,0,0,1,171.38,401.74Z" style="fill:#263238"></path><rect x="148.98" y="363.02" width="20.22" height="32.03" style="fill:#e5261f"></rect><rect x="148.98" y="363.02" width="20.22" height="32.03" style="fill:#fff;opacity:0.30000000000000004"></rect><polygon points="148.98 369.86 169.2 375.07 169.2 375.92 148.98 370.49 148.98 369.86" style="fill:#e5261f"></polygon><polygon points="148.98 371.23 169.2 376.44 169.2 377.28 148.98 371.86 148.98 371.23" style="fill:#e5261f"></polygon><polygon points="148.98 372.6 169.2 377.81 169.2 378.65 148.98 373.23 148.98 372.6" style="fill:#e5261f"></polygon><polygon points="148.98 373.97 169.2 379.18 169.2 380.02 148.98 374.6 148.98 373.97" style="fill:#e5261f"></polygon><polygon points="148.98 375.39 169.2 380.6 169.2 381.44 148.98 376.02 148.98 375.39" style="fill:#e5261f"></polygon><polygon points="148.98 376.69 169.2 381.9 169.2 382.74 148.98 377.32 148.98 376.69" style="fill:#e5261f"></polygon><polygon points="148.98 382.18 156.24 379.71 157.32 379.94 148.98 382.94 148.98 382.18" style="fill:#e5261f"></polygon><polygon points="148.98 383.42 158.2 380.16 159.31 380.44 148.98 384.17 148.98 383.42" style="fill:#e5261f"></polygon><polygon points="148.98 384.58 159.92 380.67 161.13 380.9 148.98 385.35 148.98 384.58" style="fill:#e5261f"></polygon><polygon points="148.98 385.84 161.71 381.1 163.14 381.5 148.98 386.61 148.98 385.84" style="fill:#e5261f"></polygon></g><g id="Yarn"><circle cx="113.39" cy="379.85" r="21.97" transform="translate(-235.38 191.43) rotate(-45)" style="fill:#e5261f"></circle><path d="M93.51,370.49q23.25,4.85,35.52,24.77l.95-1a56.36,56.36,0,0,0-35.89-24.89Z" style="fill:#fff;opacity:0.7000000000000001"></path><path d="M94.75,368.22c15.31,3.68,27.47,11.81,36,25.09l.82-1.12c-8.47-13-20.57-21.23-36.1-25Z" style="fill:#fff;opacity:0.7000000000000001"></path><path d="M96.23,366.13c16.07,4.37,28.41,12.38,36,25.07l.69-1.21c-7.76-12.83-20.14-20.64-35.81-24.84Z" style="fill:#fff;opacity:0.7000000000000001"></path><path d="M98,364.16c15.37,3.93,27.52,11.76,35.41,24.7l.54-1.31c-7.9-12.68-19.82-20.46-35-24.28Z" style="fill:#fff;opacity:0.7000000000000001"></path><path d="M100.1,362.35c15,3.9,26.71,11.5,34.31,23.93l.37-1.43c-7.38-12.22-18.87-19.63-33.57-23.29Z" style="fill:#fff;opacity:0.7000000000000001"></path><path d="M118.1,382.3a60,60,0,0,0-14.36,17.29l-.83-.45a74.66,74.66,0,0,1,14.3-17.58Z" style="fill:#fff;opacity:0.5"></path><path d="M116.62,381.07A73.14,73.14,0,0,0,102,398.64l-.79-.49a86.68,86.68,0,0,1,14.47-17.79Z" style="fill:#fff;opacity:0.5"></path><path d="M115.09,379.89a73.63,73.63,0,0,0-14.69,17.68l-.71-.59a63.52,63.52,0,0,1,14.45-17.77Z" style="fill:#fff;opacity:0.5"></path><path d="M113.51,378.77c-6.11,5.18-11.29,11-14.61,17.59l-.69-.63a50,50,0,0,1,14.33-17.6Z" style="fill:#fff;opacity:0.5"></path><path d="M111.74,377.58a46.76,46.76,0,0,0-14.36,17.29l-.63-.68a41.44,41.44,0,0,1,14-17.18Z" style="fill:#fff;opacity:0.5"></path><path d="M109.85,376.5c-5.94,3.3-10.36,9.25-13.89,16.72l-.57-.77c2.81-6.67,6.36-12.81,13.43-16.51Z" style="fill:#fff;opacity:0.5"></path><path d="M118.18,358.41a19.14,19.14,0,0,0-5.79,6.95l-.87-.38a20.31,20.31,0,0,1,5.52-6.79Z" style="fill:#fff;opacity:0.5"></path><path d="M116,358a24.79,24.79,0,0,0-5.46,6.57l-.9-.36a19.67,19.67,0,0,1,5.12-6.29Z" style="fill:#fff;opacity:0.5"></path><path d="M113.62,357.88a18.08,18.08,0,0,0-5,6l-.92-.34a15.52,15.52,0,0,1,4.56-5.6Z" style="fill:#fff;opacity:0.5"></path><path d="M111.17,358a16.71,16.71,0,0,0-4.33,5.21l-.93-.31c2.31-4.09,2.79-3.72,3.83-4.71Z" style="fill:#fff;opacity:0.5"></path><path d="M120.26,359a26.4,26.4,0,0,0-6,7.27l-.83-.44a20.32,20.32,0,0,1,5.81-7.15Z" style="fill:#fff;opacity:0.5"></path><path d="M111.74,388.58c3.07,3.21,8.54,6.34,14.84,8.83l-1.06.66a35.5,35.5,0,0,1-14.74-8.59Z" style="fill:#fff;opacity:0.30000000000000004"></path></g><g id="speech-bubble"><path d="M154.71,165.82a42.94,42.94,0,0,1-21.22-5.4,28.17,28.17,0,0,1-2.88.14c-12.63,0-22.92-8.08-23.1-18.07-8.91-5-14.21-13-14.21-21.64,0-7.06,3.45-13.66,9.72-18.65a15,15,0,0,1-.23-2.57c0-9.91,9.66-17.88,22.07-18.31,4.06-9.58,15.28-16,28.11-16,10.09,0,19.33,4,24.83,10.65a29.22,29.22,0,0,1,3.59-.23c12.75,0,23.11,8.23,23.11,18.34a14.54,14.54,0,0,1-.7,4.47c8.09,4.46,12.89,11.72,12.89,19.53,0,7.54-4.55,14.66-12.19,19.13-.12,9.65-9.59,17.55-21.71,18.12C175.85,162,165.63,165.82,154.71,165.82Zm-21.06-6.92a.75.75,0,0,1,.38.1,41.36,41.36,0,0,0,20.68,5.32c10.64,0,20.57-3.74,27.24-10.25a.79.79,0,0,1,.5-.22C194,153.42,203,146,203,137v-.23a.74.74,0,0,1,.38-.67c7.39-4.19,11.81-10.94,11.81-18,0-7.43-4.73-14.34-12.65-18.5a.75.75,0,0,1-.35-.92,13.49,13.49,0,0,0,.81-4.58c0-9.28-9.69-16.84-21.61-16.84a27.19,27.19,0,0,0-3.8.27.75.75,0,0,1-.69-.27c-5.19-6.52-14.13-10.42-23.93-10.42-12.42,0-23.23,6.23-26.9,15.5a.76.76,0,0,1-.68.48c-11.64.21-21.1,7.76-21.1,16.82a13.31,13.31,0,0,0,.29,2.72.75.75,0,0,1-.28.75c-6.13,4.73-9.5,11-9.5,17.75,0,8.19,5.16,15.87,13.82,20.54a.74.74,0,0,1,.39.67v.1c0,9.35,9.69,16.9,21.6,16.9a27.08,27.08,0,0,0,3-.16Z" style="fill:#e5261f"></path><path d="M221.13,176.16c-2.75,0-4.91-1.6-4.91-3.66s2.16-3.65,4.91-3.65,4.91,1.6,4.91,3.65S223.89,176.16,221.13,176.16Zm0-5.81c-1.85,0-3.41,1-3.41,2.15s1.56,2.16,3.41,2.16,3.41-1,3.41-2.16S223,170.35,221.13,170.35Z" style="fill:#e5261f"></path><path d="M200.25,174.76c-7.07,0-12.83-4.11-12.83-9.17s5.76-9.16,12.83-9.16,12.83,4.11,12.83,9.16S207.33,174.76,200.25,174.76Zm0-16.83c-6.25,0-11.33,3.43-11.33,7.66s5.08,7.67,11.33,7.67,11.33-3.44,11.33-7.67S206.5,157.93,200.25,157.93Z" style="fill:#e5261f"></path><path d="M129.2,98.05c-1.27.19,4.39,37.82,6,51.77,0,0,37.34,1.35,48-10,0,0-4.31-31.08-11.6-52Z" style="fill:#e5261f"></path><path d="M135.17,149.82s37.34,1.36,48-10c0,0-3.31-29.6-11.59-52l-23.72,5.76-18.64,4.53C128,98,134.37,141.68,135.17,149.82Z" style="fill:#fff;opacity:0.5"></path><path d="M160.9,93.29c-.2-1.43-1.7-1.8-4-1.45l-12.82,3c-2.36.44-3.08,1.35-2.56,2.61,5.05,4.1,11.12,5.79,16.11,4.35C161.48,100.67,161.73,97.3,160.9,93.29Z" style="opacity:0.2"></path><path d="M159.63,93.22c-.17-1.24-1.49-1.57-3.5-1.26L144.91,94.6c-2.06.38-2.7,1.18-2.23,2.29,4.41,3.58,9.72,5.06,14.08,3.8C160.14,99.68,160.36,96.74,159.63,93.22Z" style="opacity:0.2"></path><path d="M129.14,98.06l-20.09,9.63,7.69,14,13.68-8.31,12.78-12.69a12.8,12.8,0,0,1-2.95-2.61,5.62,5.62,0,0,1-.41-2.6Z" style="fill:#e5261f"></path><path d="M171.62,87.75,190.4,87l2.41,15.56-17-1.22-13.43-5.88a11.34,11.34,0,0,0-.5-3.4A4.2,4.2,0,0,0,160,90.57Z" style="fill:#e5261f"></path><circle cx="148.79" cy="112.32" r="4.24" transform="matrix(0.5, -0.86, 0.86, 0.5, -23.17, 184.32)" style="fill:#e5261f"></circle><circle cx="148.79" cy="112.32" r="4.24" transform="matrix(0.5, -0.86, 0.86, 0.5, -23.17, 184.32)" style="fill:#fff;opacity:0.1"></circle><path d="M146.26,113a2.62,2.62,0,1,0,1.86-3.2A2.62,2.62,0,0,0,146.26,113Z" style="opacity:0.1"></path><circle cx="165.71" cy="107.86" r="4.24" transform="translate(-10.92 196.72) rotate(-59.77)" style="fill:#e5261f"></circle><circle cx="165.71" cy="107.86" r="4.24" transform="translate(-10.92 196.72) rotate(-59.77)" style="fill:#fff;opacity:0.1"></circle><path d="M163.18,108.53a2.62,2.62,0,1,0,1.86-3.2A2.61,2.61,0,0,0,163.18,108.53Z" style="opacity:0.1"></path><ellipse cx="160.1" cy="119.64" rx="12.43" ry="9.97" transform="translate(-25.21 44.76) rotate(-14.77)" style="fill:#e5261f"></ellipse><path d="M154.12,118.35a.93.93,0,0,0,1.14.66.91.91,0,0,0,.65-1.13.93.93,0,0,0-1.79.47Z" style="fill:#263238"></path><path d="M162.69,116.1a.93.93,0,1,0,.66-1.14A.93.93,0,0,0,162.69,116.1Z" style="fill:#263238"></path><path d="M155.49,125.09a5.93,5.93,0,1,0,4.22-7.25A5.92,5.92,0,0,0,155.49,125.09Z" style="fill:#fff;opacity:0.4"></path><path d="M158.2,120.14c.13.5,1.09.68,2.14.4s1.79-.9,1.66-1.4-1.09-.67-2.14-.39S158.07,119.65,158.2,120.14Z" style="fill:#263238"></path><path d="M160.34,120.54a3.61,3.61,0,0,0,3.75,2.76,3.33,3.33,0,0,1-3.29-1c0,1.32-1,2-2.22,2.46A3.48,3.48,0,0,0,160.34,120.54Z" style="fill:#263238"></path></g></svg>