<svg width="1024" height="768" viewBox="0 0 1024 768" fill="none" xmlns="http://www.w3.org/2000/svg">
<g clip-path="url(#clip0_21492_667)">
<rect width="1024" height="768" fill="white"/>
<path d="M557.294 284.865L443.026 315.483M557.294 284.865L671.562 254.247M557.294 284.865L539.28 217.636M557.294 284.865L575.515 352.866M785.83 223.629L671.562 254.247M785.83 223.629L767.816 156.4M785.83 223.629L804.051 291.63M785.83 223.629L884.359 197.228M328.757 346.101L214.489 376.719M328.757 346.101L443.026 315.483M328.757 346.101L310.743 278.873M328.757 346.101L346.978 414.102M214.489 376.719L191.646 310.785M214.489 376.719L237.54 443.426M214.489 376.719L140.014 396.675M443.026 315.483L434.671 245.666M443.026 315.483L451.587 386.072M671.562 254.247L643.889 189.607M671.562 254.247L699.442 319.66" stroke="url(#paint0_linear_21492_667)" stroke-width="44" stroke-linecap="square" stroke-linejoin="round"/>
<path d="M135.185 555.44C139.665 555.44 143.638 555.93 147.103 556.91C150.603 557.855 153.42 558.87 155.555 559.955C157.725 561.04 159.055 561.775 159.545 562.16L149.938 578.435C149.378 578.015 148.398 577.437 146.998 576.702C145.633 575.932 144.093 575.25 142.378 574.655C140.663 574.06 139.018 573.762 137.443 573.762C135.588 573.762 134.048 574.025 132.823 574.55C131.598 575.04 130.985 575.897 130.985 577.122C130.985 577.962 131.318 578.732 131.983 579.432C132.648 580.132 133.768 580.85 135.343 581.585C136.953 582.32 139.14 583.16 141.905 584.105C144.6 584.98 147.068 586.065 149.308 587.36C151.548 588.655 153.473 590.195 155.083 591.98C156.728 593.765 158.005 595.812 158.915 598.122C159.825 600.432 160.28 603.04 160.28 605.945C160.28 609.795 159.475 613.085 157.865 615.815C156.29 618.51 154.173 620.697 151.513 622.377C148.853 624.057 145.878 625.282 142.588 626.053C139.333 626.858 136.025 627.26 132.665 627.26C127.52 627.26 122.935 626.7 118.91 625.58C114.92 624.46 111.683 623.252 109.198 621.957C106.748 620.627 105.243 619.682 104.683 619.122L114.605 602.165C114.99 602.48 115.813 602.987 117.073 603.687C118.368 604.387 119.908 605.122 121.693 605.892C123.513 606.662 125.385 607.327 127.31 607.887C129.235 608.412 131.02 608.675 132.665 608.675C134.87 608.675 136.498 608.36 137.548 607.73C138.598 607.1 139.123 606.19 139.123 605C139.123 604.16 138.79 603.372 138.125 602.637C137.495 601.902 136.34 601.132 134.66 600.327C133.015 599.487 130.67 598.525 127.625 597.44C124.685 596.355 121.885 594.937 119.225 593.188C116.565 591.437 114.395 589.162 112.715 586.362C111.035 583.562 110.195 580.062 110.195 575.862C110.195 571.592 111.385 567.935 113.765 564.89C116.145 561.845 119.243 559.517 123.058 557.907C126.873 556.262 130.915 555.44 135.185 555.44ZM206.171 600.065H188.688V626H168.371V556.7H188.688V582.477H206.171V556.7H226.436V626H206.171V600.065ZM260.284 556.7H280.182L308.742 626H287.059L282.649 613.977H257.922L253.459 626H231.724L260.284 556.7ZM264.747 596.338H275.824L270.364 581.06H270.207L264.747 596.338ZM313.371 556.7H337.311C344.696 556.7 350.838 558.187 355.738 561.162C360.673 564.102 364.383 568.18 366.868 573.395C369.353 578.61 370.596 584.577 370.596 591.297C370.596 598.052 369.353 604.037 366.868 609.252C364.383 614.467 360.673 618.562 355.738 621.537C350.838 624.512 344.696 626 337.311 626H313.371V556.7ZM333.688 574.602V608.097H335.473C338.378 608.097 340.828 607.362 342.823 605.892C344.818 604.422 346.341 602.427 347.391 599.907C348.441 597.352 348.966 594.517 348.966 591.402C348.966 588.252 348.441 585.417 347.391 582.897C346.376 580.342 344.853 578.33 342.823 576.86C340.828 575.355 338.378 574.602 335.473 574.602H333.688ZM398.011 591.297C398.011 594.412 398.641 597.265 399.901 599.855C401.161 602.41 402.928 604.457 405.203 605.997C407.478 607.502 410.138 608.255 413.183 608.255C416.263 608.255 418.941 607.502 421.216 605.997C423.491 604.457 425.258 602.41 426.518 599.855C427.778 597.265 428.408 594.412 428.408 591.297C428.408 588.182 427.778 585.347 426.518 582.792C425.258 580.237 423.491 578.19 421.216 576.65C418.941 575.11 416.263 574.34 413.183 574.34C410.138 574.34 407.478 575.11 405.203 576.65C402.928 578.19 401.161 580.237 399.901 582.792C398.641 585.347 398.011 588.182 398.011 591.297ZM376.801 591.297C376.801 586.257 377.711 581.567 379.531 577.227C381.386 572.852 383.958 569.037 387.248 565.782C390.538 562.527 394.388 559.99 398.798 558.17C403.243 556.35 408.038 555.44 413.183 555.44C418.433 555.44 423.263 556.35 427.673 558.17C432.118 559.99 435.968 562.527 439.223 565.782C442.513 569.037 445.051 572.852 446.836 577.227C448.656 581.567 449.566 586.257 449.566 591.297C449.566 596.372 448.691 601.097 446.941 605.472C445.191 609.812 442.688 613.627 439.433 616.917C436.213 620.172 432.381 622.71 427.936 624.53C423.491 626.35 418.573 627.26 413.183 627.26C407.653 627.26 402.648 626.35 398.168 624.53C393.723 622.71 389.908 620.172 386.723 616.917C383.538 613.627 381.088 609.812 379.373 605.472C377.658 601.097 376.801 596.372 376.801 591.297ZM533.905 626H509.808L500.148 584.945H503.665L493.953 626H469.75L453.055 556.7H476.47L483.295 599.12H483.033L494.688 556.7H509.073L520.728 599.12H520.465L527.29 556.7H550.705L533.905 626ZM615.478 555.44C619.958 555.44 623.93 555.93 627.395 556.91C630.895 557.855 633.713 558.87 635.848 559.955C638.018 561.04 639.348 561.775 639.838 562.16L630.23 578.435C629.67 578.015 628.69 577.437 627.29 576.702C625.925 575.932 624.385 575.25 622.67 574.655C620.955 574.06 619.31 573.762 617.735 573.762C615.88 573.762 614.34 574.025 613.115 574.55C611.89 575.04 611.278 575.897 611.278 577.122C611.278 577.962 611.61 578.732 612.275 579.432C612.94 580.132 614.06 580.85 615.635 581.585C617.245 582.32 619.433 583.16 622.198 584.105C624.893 584.98 627.36 586.065 629.6 587.36C631.84 588.655 633.765 590.195 635.375 591.98C637.02 593.765 638.298 595.812 639.208 598.122C640.118 600.432 640.573 603.04 640.573 605.945C640.573 609.795 639.768 613.085 638.158 615.815C636.583 618.51 634.465 620.697 631.805 622.377C629.145 624.057 626.17 625.282 622.88 626.053C619.625 626.858 616.318 627.26 612.958 627.26C607.813 627.26 603.228 626.7 599.203 625.58C595.213 624.46 591.975 623.252 589.49 621.957C587.04 620.627 585.535 619.682 584.975 619.122L594.898 602.165C595.283 602.48 596.105 602.987 597.365 603.687C598.66 604.387 600.2 605.122 601.985 605.892C603.805 606.662 605.678 607.327 607.603 607.887C609.528 608.412 611.313 608.675 612.958 608.675C615.163 608.675 616.79 608.36 617.84 607.73C618.89 607.1 619.415 606.19 619.415 605C619.415 604.16 619.083 603.372 618.418 602.637C617.788 601.902 616.633 601.132 614.953 600.327C613.308 599.487 610.963 598.525 607.918 597.44C604.978 596.355 602.178 594.937 599.518 593.188C596.858 591.437 594.688 589.162 593.008 586.362C591.328 583.562 590.488 580.062 590.488 575.862C590.488 571.592 591.678 567.935 594.058 564.89C596.438 561.845 599.535 559.517 603.35 557.907C607.165 556.262 611.208 555.44 615.478 555.44ZM660.581 574.34H645.619V556.7H695.861V574.34H680.899V626H660.581V574.34ZM703.737 556.7H724.055V626H703.737V556.7ZM745.484 574.34H730.521V556.7H780.764V574.34H765.801V626H745.484V574.34ZM824.351 607.1C826.801 607.1 829.163 606.715 831.438 605.945C833.748 605.175 835.533 604.405 836.793 603.635L845.456 620.855C843.776 622.255 840.923 623.672 836.898 625.107C832.873 626.542 828.131 627.26 822.671 627.26C817.561 627.26 812.731 626.385 808.181 624.635C803.631 622.85 799.588 620.347 796.053 617.127C792.553 613.907 789.806 610.127 787.811 605.787C785.816 601.412 784.818 596.635 784.818 591.455C784.818 586.275 785.816 581.497 787.811 577.122C789.806 572.712 792.553 568.897 796.053 565.677C799.553 562.422 803.578 559.902 808.128 558.117C812.713 556.332 817.561 555.44 822.671 555.44C828.131 555.44 832.873 556.157 836.898 557.592C840.923 559.027 843.776 560.445 845.456 561.845L836.793 579.065C835.533 578.295 833.748 577.525 831.438 576.755C829.163 575.985 826.801 575.6 824.351 575.6C821.026 575.6 818.243 576.072 816.003 577.017C813.763 577.962 811.961 579.222 810.596 580.797C809.266 582.337 808.303 584.035 807.708 585.89C807.148 587.71 806.868 589.512 806.868 591.297C806.868 593.117 807.148 594.955 807.708 596.81C808.303 598.665 809.266 600.38 810.596 601.955C811.961 603.495 813.763 604.737 816.003 605.682C818.243 606.627 821.026 607.1 824.351 607.1ZM891.952 600.065H874.469V626H854.152V556.7H874.469V582.477H891.952V556.7H912.217V626H891.952V600.065Z" fill="black"/>
<path d="M275.909 695L284.005 664.2H294.125L302.221 695H296.237L294.565 688.224H283.565L281.893 695H275.909ZM284.929 682.856H293.201L289.461 667.852H288.669L284.929 682.856ZM306.788 695V664.2H312.596V695H306.788ZM341.75 695.616C339.638 695.616 337.716 695.176 335.986 694.296C334.284 693.416 332.935 692.14 331.938 690.468C330.94 688.796 330.442 686.772 330.442 684.396V683.78C330.442 681.404 330.94 679.38 331.938 677.708C332.935 676.036 334.284 674.76 335.986 673.88C337.716 673 339.638 672.56 341.75 672.56C343.832 672.56 345.622 672.927 347.118 673.66C348.614 674.393 349.816 675.405 350.726 676.696C351.664 677.957 352.28 679.395 352.574 681.008L347.206 682.152C347.088 681.272 346.824 680.48 346.414 679.776C346.003 679.072 345.416 678.515 344.654 678.104C343.92 677.693 342.996 677.488 341.882 677.488C340.767 677.488 339.755 677.737 338.846 678.236C337.966 678.705 337.262 679.424 336.734 680.392C336.235 681.331 335.986 682.489 335.986 683.868V684.308C335.986 685.687 336.235 686.86 336.734 687.828C337.262 688.767 337.966 689.485 338.846 689.984C339.755 690.453 340.767 690.688 341.882 690.688C343.554 690.688 344.815 690.263 345.666 689.412C346.546 688.532 347.103 687.388 347.338 685.98L352.706 687.256C352.324 688.811 351.664 690.233 350.726 691.524C349.816 692.785 348.614 693.783 347.118 694.516C345.622 695.249 343.832 695.616 341.75 695.616ZM358.159 695V673.176H363.615V675.64H364.407C364.729 674.76 365.257 674.115 365.991 673.704C366.753 673.293 367.633 673.088 368.631 673.088H371.271V678.016H368.543C367.135 678.016 365.976 678.397 365.067 679.16C364.157 679.893 363.703 681.037 363.703 682.592V695H358.159ZM382.745 695.616C381.19 695.616 379.797 695.352 378.565 694.824C377.333 694.267 376.35 693.475 375.617 692.448C374.913 691.392 374.561 690.116 374.561 688.62C374.561 687.124 374.913 685.877 375.617 684.88C376.35 683.853 377.347 683.091 378.609 682.592C379.899 682.064 381.366 681.8 383.009 681.8H388.993V680.568C388.993 679.541 388.67 678.705 388.025 678.06C387.379 677.385 386.353 677.048 384.945 677.048C383.566 677.048 382.539 677.371 381.865 678.016C381.19 678.632 380.75 679.439 380.545 680.436L375.441 678.72C375.793 677.605 376.35 676.593 377.113 675.684C377.905 674.745 378.946 673.997 380.237 673.44C381.557 672.853 383.155 672.56 385.033 672.56C387.907 672.56 390.181 673.279 391.853 674.716C393.525 676.153 394.361 678.236 394.361 680.964V689.104C394.361 689.984 394.771 690.424 395.593 690.424H397.353V695H393.657C392.571 695 391.677 694.736 390.973 694.208C390.269 693.68 389.917 692.976 389.917 692.096V692.052H389.081C388.963 692.404 388.699 692.873 388.289 693.46C387.878 694.017 387.233 694.516 386.353 694.956C385.473 695.396 384.27 695.616 382.745 695.616ZM383.713 691.128C385.267 691.128 386.529 690.703 387.497 689.852C388.494 688.972 388.993 687.813 388.993 686.376V685.936H383.405C382.378 685.936 381.571 686.156 380.985 686.596C380.398 687.036 380.105 687.652 380.105 688.444C380.105 689.236 380.413 689.881 381.029 690.38C381.645 690.879 382.539 691.128 383.713 691.128ZM404.304 695V677.752H398.76V673.176H404.304V669.128C404.304 667.632 404.744 666.444 405.624 665.564C406.533 664.655 407.707 664.2 409.144 664.2H414.864V668.776H411.08C410.259 668.776 409.848 669.216 409.848 670.096V673.176H415.568V677.752H409.848V695H404.304ZM428.671 695C427.233 695 426.06 694.56 425.151 693.68C424.271 692.771 423.831 691.568 423.831 690.072V677.752H418.375V673.176H423.831V666.4H429.375V673.176H435.359V677.752H429.375V689.104C429.375 689.984 429.785 690.424 430.607 690.424H434.831V695H428.671ZM441.653 701.468V698.476H443.369C444.718 698.476 445.393 697.801 445.393 696.452V695.044H444.645C443.472 695.044 442.489 694.692 441.697 693.988C440.934 693.284 440.553 692.389 440.553 691.304C440.553 690.131 440.934 689.177 441.697 688.444C442.489 687.711 443.472 687.344 444.645 687.344C445.848 687.344 446.83 687.725 447.593 688.488C448.356 689.221 448.737 690.219 448.737 691.48V696.54C448.737 699.825 447.094 701.468 443.809 701.468H441.653ZM465.79 695V673.176H471.246V675.552H472.038C472.42 674.819 473.05 674.188 473.93 673.66C474.81 673.103 475.969 672.824 477.406 672.824C478.961 672.824 480.208 673.132 481.146 673.748C482.085 674.335 482.804 675.112 483.302 676.08H484.094C484.593 675.141 485.297 674.364 486.206 673.748C487.116 673.132 488.406 672.824 490.078 672.824C491.428 672.824 492.645 673.117 493.73 673.704C494.845 674.261 495.725 675.127 496.37 676.3C497.045 677.444 497.382 678.896 497.382 680.656V695H491.838V681.052C491.838 679.849 491.53 678.955 490.914 678.368C490.298 677.752 489.433 677.444 488.318 677.444C487.057 677.444 486.074 677.855 485.37 678.676C484.696 679.468 484.358 680.612 484.358 682.108V695H478.814V681.052C478.814 679.849 478.506 678.955 477.89 678.368C477.274 677.752 476.409 677.444 475.294 677.444C474.033 677.444 473.05 677.855 472.346 678.676C471.672 679.468 471.334 680.612 471.334 682.108V695H465.79ZM511.001 695.616C509.446 695.616 508.053 695.352 506.821 694.824C505.589 694.267 504.606 693.475 503.873 692.448C503.169 691.392 502.817 690.116 502.817 688.62C502.817 687.124 503.169 685.877 503.873 684.88C504.606 683.853 505.604 683.091 506.865 682.592C508.156 682.064 509.622 681.8 511.265 681.8H517.249V680.568C517.249 679.541 516.926 678.705 516.281 678.06C515.636 677.385 514.609 677.048 513.201 677.048C511.822 677.048 510.796 677.371 510.121 678.016C509.446 678.632 509.006 679.439 508.801 680.436L503.697 678.72C504.049 677.605 504.606 676.593 505.369 675.684C506.161 674.745 507.202 673.997 508.493 673.44C509.813 672.853 511.412 672.56 513.289 672.56C516.164 672.56 518.437 673.279 520.109 674.716C521.781 676.153 522.617 678.236 522.617 680.964V689.104C522.617 689.984 523.028 690.424 523.849 690.424H525.609V695H521.913C520.828 695 519.933 694.736 519.229 694.208C518.525 693.68 518.173 692.976 518.173 692.096V692.052H517.337C517.22 692.404 516.956 692.873 516.545 693.46C516.134 694.017 515.489 694.516 514.609 694.956C513.729 695.396 512.526 695.616 511.001 695.616ZM511.969 691.128C513.524 691.128 514.785 690.703 515.753 689.852C516.75 688.972 517.249 687.813 517.249 686.376V685.936H511.661C510.634 685.936 509.828 686.156 509.241 686.596C508.654 687.036 508.361 687.652 508.361 688.444C508.361 689.236 508.669 689.881 509.285 690.38C509.901 690.879 510.796 691.128 511.969 691.128ZM538.913 695.616C537.182 695.616 535.554 695.191 534.029 694.34C532.533 693.46 531.33 692.184 530.421 690.512C529.512 688.84 529.057 686.816 529.057 684.44V683.736C529.057 681.36 529.512 679.336 530.421 677.664C531.33 675.992 532.533 674.731 534.029 673.88C535.525 673 537.153 672.56 538.913 672.56C540.233 672.56 541.333 672.721 542.213 673.044C543.122 673.337 543.856 673.719 544.413 674.188C544.97 674.657 545.396 675.156 545.689 675.684H546.481V664.2H552.025V695H546.569V692.36H545.777C545.278 693.181 544.501 693.929 543.445 694.604C542.418 695.279 540.908 695.616 538.913 695.616ZM540.585 690.776C542.286 690.776 543.709 690.233 544.853 689.148C545.997 688.033 546.569 686.42 546.569 684.308V683.868C546.569 681.756 545.997 680.157 544.853 679.072C543.738 677.957 542.316 677.4 540.585 677.4C538.884 677.4 537.461 677.957 536.317 679.072C535.173 680.157 534.601 681.756 534.601 683.868V684.308C534.601 686.42 535.173 688.033 536.317 689.148C537.461 690.233 538.884 690.776 540.585 690.776ZM568.995 695.616C566.825 695.616 564.903 695.161 563.231 694.252C561.589 693.313 560.298 692.008 559.359 690.336C558.45 688.635 557.995 686.64 557.995 684.352V683.824C557.995 681.536 558.45 679.556 559.359 677.884C560.269 676.183 561.545 674.877 563.187 673.968C564.83 673.029 566.737 672.56 568.907 672.56C571.049 672.56 572.911 673.044 574.495 674.012C576.079 674.951 577.311 676.271 578.191 677.972C579.071 679.644 579.511 681.595 579.511 683.824V685.716H563.627C563.686 687.212 564.243 688.429 565.299 689.368C566.355 690.307 567.646 690.776 569.171 690.776C570.726 690.776 571.87 690.439 572.603 689.764C573.337 689.089 573.894 688.341 574.275 687.52L578.807 689.896C578.397 690.659 577.795 691.495 577.003 692.404C576.241 693.284 575.214 694.047 573.923 694.692C572.633 695.308 570.99 695.616 568.995 695.616ZM563.671 681.58H573.879C573.762 680.319 573.249 679.307 572.339 678.544C571.459 677.781 570.301 677.4 568.863 677.4C567.367 677.4 566.179 677.781 565.299 678.544C564.419 679.307 563.877 680.319 563.671 681.58ZM606.442 695.616C603.597 695.616 601.265 695 599.446 693.768C597.627 692.536 596.527 690.776 596.146 688.488L601.25 687.168C601.455 688.195 601.793 689.001 602.262 689.588C602.761 690.175 603.362 690.6 604.066 690.864C604.799 691.099 605.591 691.216 606.442 691.216C607.733 691.216 608.686 690.996 609.302 690.556C609.918 690.087 610.226 689.515 610.226 688.84C610.226 688.165 609.933 687.652 609.346 687.3C608.759 686.919 607.821 686.611 606.53 686.376L605.298 686.156C603.773 685.863 602.379 685.467 601.118 684.968C599.857 684.44 598.845 683.721 598.082 682.812C597.319 681.903 596.938 680.729 596.938 679.292C596.938 677.121 597.73 675.464 599.314 674.32C600.898 673.147 602.981 672.56 605.562 672.56C607.997 672.56 610.021 673.103 611.634 674.188C613.247 675.273 614.303 676.696 614.802 678.456L609.654 680.04C609.419 678.925 608.935 678.133 608.202 677.664C607.498 677.195 606.618 676.96 605.562 676.96C604.506 676.96 603.699 677.151 603.142 677.532C602.585 677.884 602.306 678.383 602.306 679.028C602.306 679.732 602.599 680.26 603.186 680.612C603.773 680.935 604.565 681.184 605.562 681.36L606.794 681.58C608.437 681.873 609.918 682.269 611.238 682.768C612.587 683.237 613.643 683.927 614.406 684.836C615.198 685.716 615.594 686.919 615.594 688.444C615.594 690.732 614.758 692.507 613.086 693.768C611.443 695 609.229 695.616 606.442 695.616ZM621.332 695V673.176H626.876V695H621.332ZM624.104 670.624C623.107 670.624 622.256 670.301 621.552 669.656C620.877 669.011 620.54 668.16 620.54 667.104C620.54 666.048 620.877 665.197 621.552 664.552C622.256 663.907 623.107 663.584 624.104 663.584C625.131 663.584 625.981 663.907 626.656 664.552C627.331 665.197 627.668 666.048 627.668 667.104C627.668 668.16 627.331 669.011 626.656 669.656C625.981 670.301 625.131 670.624 624.104 670.624ZM633.9 695V673.176H639.356V675.552H640.148C640.529 674.819 641.16 674.188 642.04 673.66C642.92 673.103 644.078 672.824 645.516 672.824C647.07 672.824 648.317 673.132 649.256 673.748C650.194 674.335 650.913 675.112 651.412 676.08H652.204C652.702 675.141 653.406 674.364 654.316 673.748C655.225 673.132 656.516 672.824 658.188 672.824C659.537 672.824 660.754 673.117 661.84 673.704C662.954 674.261 663.834 675.127 664.48 676.3C665.154 677.444 665.492 678.896 665.492 680.656V695H659.948V681.052C659.948 679.849 659.64 678.955 659.024 678.368C658.408 677.752 657.542 677.444 656.428 677.444C655.166 677.444 654.184 677.855 653.48 678.676C652.805 679.468 652.468 680.612 652.468 682.108V695H646.924V681.052C646.924 679.849 646.616 678.955 646 678.368C645.384 677.752 644.518 677.444 643.404 677.444C642.142 677.444 641.16 677.855 640.456 678.676C639.781 679.468 639.444 680.612 639.444 682.108V695H633.9ZM672.334 703.8V673.176H677.79V675.816H678.582C679.081 674.965 679.858 674.217 680.914 673.572C681.97 672.897 683.481 672.56 685.446 672.56C687.206 672.56 688.834 673 690.33 673.88C691.826 674.731 693.029 675.992 693.938 677.664C694.848 679.336 695.302 681.36 695.302 683.736V684.44C695.302 686.816 694.848 688.84 693.938 690.512C693.029 692.184 691.826 693.46 690.33 694.34C688.834 695.191 687.206 695.616 685.446 695.616C684.126 695.616 683.012 695.455 682.102 695.132C681.222 694.839 680.504 694.457 679.946 693.988C679.418 693.489 678.993 692.991 678.67 692.492H677.878V703.8H672.334ZM683.774 690.776C685.505 690.776 686.928 690.233 688.042 689.148C689.186 688.033 689.758 686.42 689.758 684.308V683.868C689.758 681.756 689.186 680.157 688.042 679.072C686.898 677.957 685.476 677.4 683.774 677.4C682.073 677.4 680.65 677.957 679.506 679.072C678.362 680.157 677.79 681.756 677.79 683.868V684.308C677.79 686.42 678.362 688.033 679.506 689.148C680.65 690.233 682.073 690.776 683.774 690.776ZM701.273 695V664.2H706.817V695H701.273ZM723.784 695.616C721.614 695.616 719.692 695.161 718.02 694.252C716.378 693.313 715.087 692.008 714.148 690.336C713.239 688.635 712.784 686.64 712.784 684.352V683.824C712.784 681.536 713.239 679.556 714.148 677.884C715.058 676.183 716.334 674.877 717.976 673.968C719.619 673.029 721.526 672.56 723.696 672.56C725.838 672.56 727.7 673.044 729.284 674.012C730.868 674.951 732.1 676.271 732.98 677.972C733.86 679.644 734.3 681.595 734.3 683.824V685.716H718.416C718.475 687.212 719.032 688.429 720.088 689.368C721.144 690.307 722.435 690.776 723.96 690.776C725.515 690.776 726.659 690.439 727.392 689.764C728.126 689.089 728.683 688.341 729.064 687.52L733.596 689.896C733.186 690.659 732.584 691.495 731.792 692.404C731.03 693.284 730.003 694.047 728.712 694.692C727.422 695.308 725.779 695.616 723.784 695.616ZM718.46 681.58H728.668C728.551 680.319 728.038 679.307 727.128 678.544C726.248 677.781 725.09 677.4 723.652 677.4C722.156 677.4 720.968 677.781 720.088 678.544C719.208 679.307 718.666 680.319 718.46 681.58ZM743.333 695.616C742.16 695.616 741.162 695.235 740.341 694.472C739.549 693.68 739.153 692.668 739.153 691.436C739.153 690.204 739.549 689.207 740.341 688.444C741.162 687.652 742.16 687.256 743.333 687.256C744.536 687.256 745.533 687.652 746.325 688.444C747.117 689.207 747.513 690.204 747.513 691.436C747.513 692.668 747.117 693.68 746.325 694.472C745.533 695.235 744.536 695.616 743.333 695.616Z" fill="#F42000"/>
</g>
<defs>
<linearGradient id="paint0_linear_21492_667" x1="413" y1="465" x2="741" y2="116" gradientUnits="userSpaceOnUse">
<stop stop-color="#D62308"/>
<stop offset="1" stop-color="#FE563C"/>
</linearGradient>
<clipPath id="clip0_21492_667">
<rect width="1024" height="768" fill="white"/>
</clipPath>
</defs>
</svg>
