<svg width="799" height="342" viewBox="0 0 799 342" fill="none" xmlns="http://www.w3.org/2000/svg">
<path d="M444.224 155.409L329.956 186.027M444.224 155.409L558.493 124.791M444.224 155.409L426.21 88.1804M444.224 155.409L462.445 223.41M672.761 94.1729L558.493 124.791M672.761 94.1729L654.747 26.9443M672.761 94.1729L690.982 162.174M672.761 94.1729L771.289 67.7722M215.688 216.645L101.42 247.263M215.688 216.645L329.956 186.027M215.688 216.645L197.674 149.417M215.688 216.645L233.909 284.646M101.42 247.263L78.5762 181.329M101.42 247.263L124.47 313.97M101.42 247.263L26.9444 267.219M329.956 186.027L321.602 116.21M329.956 186.027L338.518 256.616M558.493 124.791L530.819 60.1505M558.493 124.791L586.373 190.204" stroke="url(#paint0_linear_21497_922)" stroke-width="44" stroke-linecap="square" stroke-linejoin="round"/>
<defs>
<linearGradient id="paint0_linear_21497_922" x1="299.931" y1="335.544" x2="627.931" y2="-13.4561" gradientUnits="userSpaceOnUse">
<stop stop-color="#D62308"/>
<stop offset="1" stop-color="#FE563C"/>
</linearGradient>
</defs>
</svg>
