<svg viewBox="110 166 810 490" fill="none" xmlns="http://www.w3.org/2000/svg">
<path d="M557.294 304.865L443.026 335.483M557.294 304.865L671.562 274.247M557.294 304.865L539.28 237.636M557.294 304.865L575.515 372.866M785.83 243.629L671.562 274.247M785.83 243.629L767.816 176.4M785.83 243.629L804.051 311.63M785.83 243.629L884.359 217.228M328.757 366.101L214.489 396.719M328.757 366.101L443.026 335.483M328.757 366.101L310.743 298.873M328.757 366.101L346.978 434.102M214.489 396.719L191.646 330.785M214.489 396.719L237.54 463.426M214.489 396.719L140.014 416.675M443.026 335.483L434.671 265.666M443.026 335.483L451.587 406.072M671.562 274.247L643.889 209.607M671.562 274.247L699.442 339.66" stroke="url(#paint0_linear_21496_906)" stroke-width="44" stroke-linecap="square" stroke-linejoin="round"/>
<path d="M135.185 575.44C139.665 575.44 143.638 575.93 147.103 576.91C150.603 577.855 153.42 578.87 155.555 579.955C157.725 581.04 159.055 581.775 159.545 582.16L149.938 598.435C149.378 598.015 148.398 597.437 146.998 596.702C145.633 595.932 144.093 595.25 142.378 594.655C140.663 594.06 139.018 593.762 137.443 593.762C135.588 593.762 134.048 594.025 132.823 594.55C131.598 595.04 130.985 595.897 130.985 597.122C130.985 597.962 131.318 598.732 131.983 599.432C132.648 600.132 133.768 600.85 135.343 601.585C136.953 602.32 139.14 603.16 141.905 604.105C144.6 604.98 147.068 606.065 149.308 607.36C151.548 608.655 153.473 610.195 155.083 611.98C156.728 613.765 158.005 615.812 158.915 618.122C159.825 620.432 160.28 623.04 160.28 625.945C160.28 629.795 159.475 633.085 157.865 635.815C156.29 638.51 154.173 640.697 151.513 642.377C148.853 644.057 145.878 645.282 142.588 646.053C139.333 646.858 136.025 647.26 132.665 647.26C127.52 647.26 122.935 646.7 118.91 645.58C114.92 644.46 111.683 643.252 109.198 641.957C106.748 640.627 105.243 639.682 104.683 639.122L114.605 622.165C114.99 622.48 115.813 622.987 117.073 623.687C118.368 624.387 119.908 625.122 121.693 625.892C123.513 626.662 125.385 627.327 127.31 627.887C129.235 628.412 131.02 628.675 132.665 628.675C134.87 628.675 136.498 628.36 137.548 627.73C138.598 627.1 139.123 626.19 139.123 625C139.123 624.16 138.79 623.372 138.125 622.637C137.495 621.902 136.34 621.132 134.66 620.327C133.015 619.487 130.67 618.525 127.625 617.44C124.685 616.355 121.885 614.937 119.225 613.188C116.565 611.437 114.395 609.162 112.715 606.362C111.035 603.562 110.195 600.062 110.195 595.862C110.195 591.592 111.385 587.935 113.765 584.89C116.145 581.845 119.243 579.517 123.058 577.907C126.873 576.262 130.915 575.44 135.185 575.44ZM206.171 620.065H188.688V646H168.371V576.7H188.688V602.477H206.171V576.7H226.436V646H206.171V620.065ZM260.284 576.7H280.182L308.742 646H287.059L282.649 633.977H257.922L253.459 646H231.724L260.284 576.7ZM264.747 616.338H275.824L270.364 601.06H270.207L264.747 616.338ZM313.371 576.7H337.311C344.696 576.7 350.838 578.187 355.738 581.162C360.673 584.102 364.383 588.18 366.868 593.395C369.353 598.61 370.596 604.577 370.596 611.297C370.596 618.052 369.353 624.037 366.868 629.252C364.383 634.467 360.673 638.562 355.738 641.537C350.838 644.512 344.696 646 337.311 646H313.371V576.7ZM333.688 594.602V628.097H335.473C338.378 628.097 340.828 627.362 342.823 625.892C344.818 624.422 346.341 622.427 347.391 619.907C348.441 617.352 348.966 614.517 348.966 611.402C348.966 608.252 348.441 605.417 347.391 602.897C346.376 600.342 344.853 598.33 342.823 596.86C340.828 595.355 338.378 594.602 335.473 594.602H333.688ZM398.011 611.297C398.011 614.412 398.641 617.265 399.901 619.855C401.161 622.41 402.928 624.457 405.203 625.997C407.478 627.502 410.138 628.255 413.183 628.255C416.263 628.255 418.941 627.502 421.216 625.997C423.491 624.457 425.258 622.41 426.518 619.855C427.778 617.265 428.408 614.412 428.408 611.297C428.408 608.182 427.778 605.347 426.518 602.792C425.258 600.237 423.491 598.19 421.216 596.65C418.941 595.11 416.263 594.34 413.183 594.34C410.138 594.34 407.478 595.11 405.203 596.65C402.928 598.19 401.161 600.237 399.901 602.792C398.641 605.347 398.011 608.182 398.011 611.297ZM376.801 611.297C376.801 606.257 377.711 601.567 379.531 597.227C381.386 592.852 383.958 589.037 387.248 585.782C390.538 582.527 394.388 579.99 398.798 578.17C403.243 576.35 408.038 575.44 413.183 575.44C418.433 575.44 423.263 576.35 427.673 578.17C432.118 579.99 435.968 582.527 439.223 585.782C442.513 589.037 445.051 592.852 446.836 597.227C448.656 601.567 449.566 606.257 449.566 611.297C449.566 616.372 448.691 621.097 446.941 625.472C445.191 629.812 442.688 633.627 439.433 636.917C436.213 640.172 432.381 642.71 427.936 644.53C423.491 646.35 418.573 647.26 413.183 647.26C407.653 647.26 402.648 646.35 398.168 644.53C393.723 642.71 389.908 640.172 386.723 636.917C383.538 633.627 381.088 629.812 379.373 625.472C377.658 621.097 376.801 616.372 376.801 611.297ZM533.905 646H509.808L500.148 604.945H503.665L493.953 646H469.75L453.055 576.7H476.47L483.295 619.12H483.033L494.688 576.7H509.073L520.728 619.12H520.465L527.29 576.7H550.705L533.905 646ZM615.478 575.44C619.958 575.44 623.93 575.93 627.395 576.91C630.895 577.855 633.713 578.87 635.848 579.955C638.018 581.04 639.348 581.775 639.838 582.16L630.23 598.435C629.67 598.015 628.69 597.437 627.29 596.702C625.925 595.932 624.385 595.25 622.67 594.655C620.955 594.06 619.31 593.762 617.735 593.762C615.88 593.762 614.34 594.025 613.115 594.55C611.89 595.04 611.278 595.897 611.278 597.122C611.278 597.962 611.61 598.732 612.275 599.432C612.94 600.132 614.06 600.85 615.635 601.585C617.245 602.32 619.433 603.16 622.198 604.105C624.893 604.98 627.36 606.065 629.6 607.36C631.84 608.655 633.765 610.195 635.375 611.98C637.02 613.765 638.298 615.812 639.208 618.122C640.118 620.432 640.573 623.04 640.573 625.945C640.573 629.795 639.768 633.085 638.158 635.815C636.583 638.51 634.465 640.697 631.805 642.377C629.145 644.057 626.17 645.282 622.88 646.053C619.625 646.858 616.318 647.26 612.958 647.26C607.813 647.26 603.228 646.7 599.203 645.58C595.213 644.46 591.975 643.252 589.49 641.957C587.04 640.627 585.535 639.682 584.975 639.122L594.898 622.165C595.283 622.48 596.105 622.987 597.365 623.687C598.66 624.387 600.2 625.122 601.985 625.892C603.805 626.662 605.678 627.327 607.603 627.887C609.528 628.412 611.313 628.675 612.958 628.675C615.163 628.675 616.79 628.36 617.84 627.73C618.89 627.1 619.415 626.19 619.415 625C619.415 624.16 619.083 623.372 618.418 622.637C617.788 621.902 616.633 621.132 614.953 620.327C613.308 619.487 610.963 618.525 607.918 617.44C604.978 616.355 602.178 614.937 599.518 613.188C596.858 611.437 594.688 609.162 593.008 606.362C591.328 603.562 590.488 600.062 590.488 595.862C590.488 591.592 591.678 587.935 594.058 584.89C596.438 581.845 599.535 579.517 603.35 577.907C607.165 576.262 611.208 575.44 615.478 575.44ZM660.581 594.34H645.619V576.7H695.861V594.34H680.899V646H660.581V594.34ZM703.737 576.7H724.055V646H703.737V576.7ZM745.484 594.34H730.521V576.7H780.764V594.34H765.801V646H745.484V594.34ZM824.351 627.1C826.801 627.1 829.163 626.715 831.438 625.945C833.748 625.175 835.533 624.405 836.793 623.635L845.456 640.855C843.776 642.255 840.923 643.672 836.898 645.107C832.873 646.542 828.131 647.26 822.671 647.26C817.561 647.26 812.731 646.385 808.181 644.635C803.631 642.85 799.588 640.347 796.053 637.127C792.553 633.907 789.806 630.127 787.811 625.787C785.816 621.412 784.818 616.635 784.818 611.455C784.818 606.275 785.816 601.497 787.811 597.122C789.806 592.712 792.553 588.897 796.053 585.677C799.553 582.422 803.578 579.902 808.128 578.117C812.713 576.332 817.561 575.44 822.671 575.44C828.131 575.44 832.873 576.157 836.898 577.592C840.923 579.027 843.776 580.445 845.456 581.845L836.793 599.065C835.533 598.295 833.748 597.525 831.438 596.755C829.163 595.985 826.801 595.6 824.351 595.6C821.026 595.6 818.243 596.072 816.003 597.017C813.763 597.962 811.961 599.222 810.596 600.797C809.266 602.337 808.303 604.035 807.708 605.89C807.148 607.71 806.868 609.512 806.868 611.297C806.868 613.117 807.148 614.955 807.708 616.81C808.303 618.665 809.266 620.38 810.596 621.955C811.961 623.495 813.763 624.737 816.003 625.682C818.243 626.627 821.026 627.1 824.351 627.1ZM891.952 620.065H874.469V646H854.152V576.7H874.469V602.477H891.952V576.7H912.217V646H891.952V620.065Z" fill="black"/>
<defs>
<linearGradient id="paint0_linear_21496_906" x1="413" y1="485" x2="741" y2="136" gradientUnits="userSpaceOnUse">
<stop stop-color="#D62308"/>
<stop offset="1" stop-color="#FE563C"/>
</linearGradient>
</defs>
</svg>
