<svg width="808" height="72" viewBox="0 0 808 72" fill="none" xmlns="http://www.w3.org/2000/svg">
<path d="M30.5025 -0.000434995C34.9825 -0.000434995 38.955 0.489565 42.42 1.46956C45.92 2.41457 48.7375 3.42957 50.8725 4.51457C53.0425 5.59957 54.3725 6.33456 54.8625 6.71957L45.255 22.9946C44.695 22.5746 43.715 21.9971 42.315 21.2621C40.95 20.4921 39.41 19.8096 37.695 19.2146C35.98 18.6196 34.335 18.3221 32.76 18.3221C30.905 18.3221 29.365 18.5846 28.14 19.1096C26.915 19.5996 26.3025 20.4571 26.3025 21.6821C26.3025 22.5221 26.635 23.2921 27.3 23.9921C27.965 24.6921 29.085 25.4096 30.66 26.1446C32.27 26.8796 34.4575 27.7196 37.2225 28.6646C39.9175 29.5396 42.385 30.6246 44.625 31.9196C46.865 33.2146 48.79 34.7546 50.4 36.5396C52.045 38.3246 53.3225 40.3721 54.2325 42.6821C55.1425 44.9921 55.5975 47.5996 55.5975 50.5046C55.5975 54.3546 54.7925 57.6446 53.1825 60.3746C51.6075 63.0696 49.49 65.2571 46.83 66.9371C44.17 68.6171 41.195 69.8421 37.905 70.6121C34.65 71.4171 31.3425 71.8196 27.9825 71.8196C22.8375 71.8196 18.2525 71.2596 14.2275 70.1396C10.2375 69.0196 7.00001 67.8121 4.51501 66.5171C2.06501 65.1871 0.560005 64.2421 4.89689e-06 63.6821L9.92251 46.7246C10.3075 47.0396 11.13 47.5471 12.39 48.2471C13.685 48.9471 15.225 49.6821 17.01 50.4521C18.83 51.2221 20.7025 51.8871 22.6275 52.4471C24.5525 52.9721 26.3375 53.2346 27.9825 53.2346C30.1875 53.2346 31.815 52.9196 32.865 52.2896C33.915 51.6596 34.44 50.7496 34.44 49.5596C34.44 48.7196 34.1075 47.9321 33.4425 47.1971C32.8125 46.4621 31.6575 45.6921 29.9775 44.8871C28.3325 44.0471 25.9875 43.0846 22.9425 41.9996C20.0025 40.9146 17.2025 39.4971 14.5425 37.7471C11.8825 35.9971 9.71251 33.7221 8.03251 30.9221C6.35251 28.1221 5.51251 24.6221 5.51251 20.4221C5.51251 16.1521 6.70251 12.4946 9.08251 9.44957C11.4625 6.40457 14.56 4.07707 18.375 2.46707C22.19 0.822066 26.2325 -0.000434995 30.5025 -0.000434995ZM101.488 44.6246H84.0057V70.5596H63.6882V1.25957H84.0057V27.0371H101.488V1.25957H121.753V70.5596H101.488V44.6246ZM155.602 1.25957H175.499L204.059 70.5596H182.377L177.967 58.5371H153.239L148.777 70.5596H127.042L155.602 1.25957ZM160.064 40.8971H171.142L165.682 25.6196H165.524L160.064 40.8971ZM208.688 1.25957H232.628C240.013 1.25957 246.156 2.74707 251.056 5.72207C255.991 8.66207 259.701 12.7396 262.186 17.9546C264.671 23.1696 265.913 29.1371 265.913 35.8571C265.913 42.6121 264.671 48.5971 262.186 53.8121C259.701 59.0271 255.991 63.1221 251.056 66.0971C246.156 69.0721 240.013 70.5596 232.628 70.5596H208.688V1.25957ZM229.006 19.1621V52.6571H230.791C233.696 52.6571 236.146 51.9221 238.141 50.4521C240.136 48.9821 241.658 46.9871 242.708 44.4671C243.758 41.9121 244.283 39.0771 244.283 35.9621C244.283 32.8121 243.758 29.9771 242.708 27.4571C241.693 24.9021 240.171 22.8896 238.141 21.4196C236.146 19.9146 233.696 19.1621 230.791 19.1621H229.006ZM293.328 35.8571C293.328 38.9721 293.958 41.8246 295.218 44.4146C296.478 46.9696 298.246 49.0171 300.521 50.5571C302.796 52.0621 305.456 52.8146 308.501 52.8146C311.581 52.8146 314.258 52.0621 316.533 50.5571C318.808 49.0171 320.576 46.9696 321.836 44.4146C323.096 41.8246 323.726 38.9721 323.726 35.8571C323.726 32.7421 323.096 29.9071 321.836 27.3521C320.576 24.7971 318.808 22.7496 316.533 21.2096C314.258 19.6696 311.581 18.8996 308.501 18.8996C305.456 18.8996 302.796 19.6696 300.521 21.2096C298.246 22.7496 296.478 24.7971 295.218 27.3521C293.958 29.9071 293.328 32.7421 293.328 35.8571ZM272.118 35.8571C272.118 30.8171 273.028 26.1271 274.848 21.7871C276.703 17.4121 279.276 13.5971 282.566 10.3421C285.856 7.08707 289.706 4.54957 294.116 2.72957C298.561 0.909566 303.356 -0.000434995 308.501 -0.000434995C313.751 -0.000434995 318.581 0.909566 322.991 2.72957C327.436 4.54957 331.286 7.08707 334.541 10.3421C337.831 13.5971 340.368 17.4121 342.153 21.7871C343.973 26.1271 344.883 30.8171 344.883 35.8571C344.883 40.9321 344.008 45.6571 342.258 50.0321C340.508 54.3721 338.006 58.1871 334.751 61.4771C331.531 64.7321 327.698 67.2696 323.253 69.0896C318.808 70.9096 313.891 71.8196 308.501 71.8196C302.971 71.8196 297.966 70.9096 293.486 69.0896C289.041 67.2696 285.226 64.7321 282.041 61.4771C278.856 58.1871 276.406 54.3721 274.691 50.0321C272.976 45.6571 272.118 40.9321 272.118 35.8571ZM429.223 70.5596H405.125L395.465 29.5046H398.983L389.27 70.5596H365.068L348.373 1.25957H371.788L378.613 43.6796H378.35L390.005 1.25957H404.39L416.045 43.6796H415.783L422.608 1.25957H446.023L429.223 70.5596ZM510.795 -0.000434995C515.275 -0.000434995 519.248 0.489565 522.713 1.46956C526.213 2.41457 529.03 3.42957 531.165 4.51457C533.335 5.59957 534.665 6.33456 535.155 6.71957L525.548 22.9946C524.988 22.5746 524.008 21.9971 522.608 21.2621C521.243 20.4921 519.703 19.8096 517.988 19.2146C516.273 18.6196 514.628 18.3221 513.053 18.3221C511.198 18.3221 509.658 18.5846 508.433 19.1096C507.208 19.5996 506.595 20.4571 506.595 21.6821C506.595 22.5221 506.928 23.2921 507.593 23.9921C508.258 24.6921 509.378 25.4096 510.953 26.1446C512.563 26.8796 514.75 27.7196 517.515 28.6646C520.21 29.5396 522.678 30.6246 524.918 31.9196C527.158 33.2146 529.083 34.7546 530.693 36.5396C532.338 38.3246 533.615 40.3721 534.525 42.6821C535.435 44.9921 535.89 47.5996 535.89 50.5046C535.89 54.3546 535.085 57.6446 533.475 60.3746C531.9 63.0696 529.783 65.2571 527.123 66.9371C524.463 68.6171 521.488 69.8421 518.198 70.6121C514.943 71.4171 511.635 71.8196 508.275 71.8196C503.13 71.8196 498.545 71.2596 494.52 70.1396C490.53 69.0196 487.293 67.8121 484.808 66.5171C482.358 65.1871 480.853 64.2421 480.293 63.6821L490.215 46.7246C490.6 47.0396 491.423 47.5471 492.683 48.2471C493.978 48.9471 495.518 49.6821 497.303 50.4521C499.123 51.2221 500.995 51.8871 502.92 52.4471C504.845 52.9721 506.63 53.2346 508.275 53.2346C510.48 53.2346 512.108 52.9196 513.158 52.2896C514.208 51.6596 514.733 50.7496 514.733 49.5596C514.733 48.7196 514.4 47.9321 513.735 47.1971C513.105 46.4621 511.95 45.6921 510.27 44.8871C508.625 44.0471 506.28 43.0846 503.235 41.9996C500.295 40.9146 497.495 39.4971 494.835 37.7471C492.175 35.9971 490.005 33.7221 488.325 30.9221C486.645 28.1221 485.805 24.6221 485.805 20.4221C485.805 16.1521 486.995 12.4946 489.375 9.44957C491.755 6.40457 494.853 4.07707 498.668 2.46707C502.483 0.822066 506.525 -0.000434995 510.795 -0.000434995ZM555.899 18.8996H540.936V1.25957H591.179V18.8996H576.216V70.5596H555.899V18.8996ZM599.055 1.25957H619.372V70.5596H599.055V1.25957ZM640.801 18.8996H625.839V1.25957H676.081V18.8996H661.119V70.5596H640.801V18.8996ZM719.668 51.6596C722.118 51.6596 724.481 51.2746 726.756 50.5046C729.066 49.7346 730.851 48.9646 732.111 48.1946L740.773 65.4146C739.093 66.8146 736.241 68.2321 732.216 69.6671C728.191 71.1021 723.448 71.8196 717.988 71.8196C712.878 71.8196 708.048 70.9446 703.498 69.1946C698.948 67.4096 694.906 64.9071 691.371 61.6871C687.871 58.4671 685.123 54.6871 683.128 50.3471C681.133 45.9721 680.136 41.1946 680.136 36.0146C680.136 30.8346 681.133 26.0571 683.128 21.6821C685.123 17.2721 687.871 13.4571 691.371 10.2371C694.871 6.98207 698.896 4.46206 703.446 2.67706C708.031 0.892065 712.878 -0.000434995 717.988 -0.000434995C723.448 -0.000434995 728.191 0.717065 732.216 2.15207C736.241 3.58707 739.093 5.00457 740.773 6.40457L732.111 23.6246C730.851 22.8546 729.066 22.0846 726.756 21.3146C724.481 20.5446 722.118 20.1596 719.668 20.1596C716.343 20.1596 713.561 20.6321 711.321 21.5771C709.081 22.5221 707.278 23.7821 705.913 25.3571C704.583 26.8971 703.621 28.5946 703.026 30.4496C702.466 32.2696 702.186 34.0721 702.186 35.8571C702.186 37.6771 702.466 39.5146 703.026 41.3696C703.621 43.2246 704.583 44.9396 705.913 46.5146C707.278 48.0546 709.081 49.2971 711.321 50.2421C713.561 51.1871 716.343 51.6596 719.668 51.6596ZM787.269 44.6246H769.787V70.5596H749.469V1.25957H769.787V27.0371H787.269V1.25957H807.535V70.5596H787.269V44.6246Z" fill="black"/>
</svg>
