<svg width="1024" height="1024" viewBox="0 0 1024 1024" fill="none" xmlns="http://www.w3.org/2000/svg">
<g clip-path="url(#clip0_21433_535)">
<rect width="1024" height="1024" fill="white"/>
<path d="M144 781C149.891 781 154.667 785.701 154.667 791.5C154.667 797.299 149.891 802 144 802H138.667C132.776 802 128 797.299 128 791.5C128 785.701 132.776 781 138.667 781H144ZM197.333 781C203.224 781 208 785.701 208 791.5C208 797.299 203.224 802 197.333 802H186.667C180.776 802 176 797.299 176 791.5C176 785.701 180.776 781 186.667 781H197.333ZM250.667 781C256.558 781 261.333 785.701 261.333 791.5C261.333 797.299 256.558 802 250.667 802H240C234.109 802 229.333 797.299 229.333 791.5C229.333 785.701 234.109 781 240 781H250.667ZM304 781C309.891 781 314.667 785.701 314.667 791.5C314.667 797.299 309.891 802 304 802H293.333C287.442 802 282.667 797.299 282.667 791.5C282.667 785.701 287.442 781 293.333 781H304ZM357.333 781C363.225 781 368 785.701 368 791.5C368 797.299 363.225 802 357.333 802H346.667C340.775 802 336 797.299 336 791.5C336 785.701 340.775 781 346.667 781H357.333ZM410.667 781C416.558 781 421.333 785.701 421.333 791.5C421.333 797.299 416.558 802 410.667 802H400C394.109 802 389.333 797.299 389.333 791.5C389.333 785.701 394.109 781 400 781H410.667ZM464 781C469.891 781 474.667 785.701 474.667 791.5C474.667 797.299 469.891 802 464 802H453.333C447.442 802 442.667 797.299 442.667 791.5C442.667 785.701 447.442 781 453.333 781H464ZM517.333 781C523.225 781 528 785.701 528 791.5C528 797.299 523.225 802 517.333 802H506.667C500.775 802 496 797.299 496 791.5C496 785.701 500.775 781 506.667 781H517.333ZM570.667 781C576.558 781 581.333 785.701 581.333 791.5C581.333 797.299 576.558 802 570.667 802H560C554.109 802 549.333 797.299 549.333 791.5C549.333 785.701 554.109 781 560 781H570.667ZM624 781C629.891 781 634.667 785.701 634.667 791.5C634.667 797.299 629.891 802 624 802H613.333C607.442 802 602.667 797.299 602.667 791.5C602.667 785.701 607.442 781 613.333 781H624ZM677.333 781C683.225 781 688 785.701 688 791.5C688 797.299 683.225 802 677.333 802H666.667C660.775 802 656 797.299 656 791.5C656 785.701 660.775 781 666.667 781H677.333ZM730.667 781C736.558 781 741.333 785.701 741.333 791.5C741.333 797.299 736.558 802 730.667 802H720C714.109 802 709.333 797.299 709.333 791.5C709.333 785.701 714.109 781 720 781H730.667ZM784 781C789.891 781 794.667 785.701 794.667 791.5C794.667 797.299 789.891 802 784 802H773.333C767.442 802 762.667 797.299 762.667 791.5C762.667 785.701 767.442 781 773.333 781H784ZM837.333 781C843.225 781 848 785.701 848 791.5C848 797.299 843.225 802 837.333 802H826.667C820.775 802 816 797.299 816 791.5C816 785.701 820.775 781 826.667 781H837.333ZM885.333 781C891.225 781 896 785.701 896 791.5C896 797.299 891.225 802 885.333 802H880C874.109 802 869.333 797.299 869.333 791.5C869.333 785.701 874.109 781 880 781H885.333Z" fill="#141316"/>
<path d="M144 463C149.891 463 154.667 467.701 154.667 473.5C154.667 479.299 149.891 484 144 484H138.667C132.776 484 128 479.299 128 473.5C128 467.701 132.776 463 138.667 463H144ZM197.333 463C203.224 463 208 467.701 208 473.5C208 479.299 203.224 484 197.333 484H186.667C180.776 484 176 479.299 176 473.5C176 467.701 180.776 463 186.667 463H197.333ZM250.667 463C256.558 463 261.333 467.701 261.333 473.5C261.333 479.299 256.558 484 250.667 484H240C234.109 484 229.333 479.299 229.333 473.5C229.333 467.701 234.109 463 240 463H250.667ZM304 463C309.891 463 314.667 467.701 314.667 473.5C314.667 479.299 309.891 484 304 484H293.333C287.442 484 282.667 479.299 282.667 473.5C282.667 467.701 287.442 463 293.333 463H304ZM357.333 463C363.225 463 368 467.701 368 473.5C368 479.299 363.225 484 357.333 484H346.667C340.775 484 336 479.299 336 473.5C336 467.701 340.775 463 346.667 463H357.333ZM410.667 463C416.558 463 421.333 467.701 421.333 473.5C421.333 479.299 416.558 484 410.667 484H400C394.109 484 389.333 479.299 389.333 473.5C389.333 467.701 394.109 463 400 463H410.667ZM464 463C469.891 463 474.667 467.701 474.667 473.5C474.667 479.299 469.891 484 464 484H453.333C447.442 484 442.667 479.299 442.667 473.5C442.667 467.701 447.442 463 453.333 463H464ZM517.333 463C523.225 463 528 467.701 528 473.5C528 479.299 523.225 484 517.333 484H506.667C500.775 484 496 479.299 496 473.5C496 467.701 500.775 463 506.667 463H517.333ZM570.667 463C576.558 463 581.333 467.701 581.333 473.5C581.333 479.299 576.558 484 570.667 484H560C554.109 484 549.333 479.299 549.333 473.5C549.333 467.701 554.109 463 560 463H570.667ZM624 463C629.891 463 634.667 467.701 634.667 473.5C634.667 479.299 629.891 484 624 484H613.333C607.442 484 602.667 479.299 602.667 473.5C602.667 467.701 607.442 463 613.333 463H624ZM677.333 463C683.225 463 688 467.701 688 473.5C688 479.299 683.225 484 677.333 484H666.667C660.775 484 656 479.299 656 473.5C656 467.701 660.775 463 666.667 463H677.333ZM730.667 463C736.558 463 741.333 467.701 741.333 473.5C741.333 479.299 736.558 484 730.667 484H720C714.109 484 709.333 479.299 709.333 473.5C709.333 467.701 714.109 463 720 463H730.667ZM784 463C789.891 463 794.667 467.701 794.667 473.5C794.667 479.299 789.891 484 784 484H773.333C767.442 484 762.667 479.299 762.667 473.5C762.667 467.701 767.442 463 773.333 463H784ZM837.333 463C843.225 463 848 467.701 848 473.5C848 479.299 843.225 484 837.333 484H826.667C820.775 484 816 479.299 816 473.5C816 467.701 820.775 463 826.667 463H837.333ZM885.333 463C891.225 463 896 467.701 896 473.5C896 479.299 891.225 484 885.333 484H880C874.109 484 869.333 479.299 869.333 473.5C869.333 467.701 874.109 463 880 463H885.333Z" fill="#141316"/>
<path d="M337.321 546.91H553.012V600.766H476.597V802H410.008V600.766H337.321V546.91Z" fill="#141316"/>
<path d="M129 546.91H337.691V600.766H271.276V802H204.687V600.766H129V546.91Z" fill="#141316"/>
<path d="M717.163 376.927C717.163 393.424 721.894 406.524 731.354 416.228C741.058 425.932 753.066 430.784 767.378 430.784C781.691 430.784 793.214 426.053 801.947 416.592C810.922 406.888 815.41 393.666 815.41 376.927V227.003H882V376.927C882 399.246 877.27 418.654 867.809 435.15C858.59 451.647 845.37 464.383 828.146 473.359C810.922 482.335 790.545 486.823 767.015 486.823C743.484 486.823 722.985 482.335 705.519 473.359C688.053 464.383 674.468 451.647 664.765 435.15C655.304 418.654 650.574 399.246 650.574 376.927V227.003H717.163V376.927Z" fill="#141316"/>
<path d="M335.683 312.518C327.435 302.086 317.61 293.838 306.209 287.773C294.807 281.708 283.527 278.676 272.368 278.676C262.665 278.676 253.568 280.617 245.077 284.498C236.587 288.137 229.188 293.353 222.881 300.146C216.573 306.696 211.722 314.58 208.325 323.799C204.929 332.775 203.231 342.6 203.231 353.274C203.231 363.948 204.929 373.895 208.325 383.114C211.722 392.09 216.573 399.974 222.881 406.767C229.188 413.559 236.587 418.897 245.077 422.778C253.568 426.417 262.665 428.236 272.368 428.236C283.042 428.236 293.958 425.568 305.117 420.231C316.518 414.651 326.707 407.252 335.683 398.033L374.618 439.153C365.399 448.857 354.968 457.348 343.324 464.626C331.68 471.661 319.429 477.12 306.572 481.001C293.958 484.883 281.344 486.823 268.729 486.823C249.565 486.823 231.856 483.548 215.603 476.998C199.35 470.206 185.158 460.866 173.029 448.978C161.143 436.849 151.803 422.778 145.011 406.767C138.218 390.513 134.822 372.924 134.822 354.002C134.822 335.322 138.218 318.098 145.011 302.329C151.803 286.318 161.385 272.368 173.757 260.481C186.129 248.594 200.563 239.375 217.058 232.825C233.797 226.275 251.869 223 271.276 223C283.891 223 296.505 224.819 309.12 228.458C321.734 231.855 333.621 236.828 344.78 243.378C355.939 249.928 365.763 257.691 374.254 266.667L335.683 312.518Z" fill="#141316"/>
<path fill-rule="evenodd" clip-rule="evenodd" d="M503 214C538.805 214 573.145 228.229 598.459 253.541C623.773 278.854 638 313.195 638 349C638 384.805 623.771 419.145 598.459 444.459C573.146 469.773 538.805 484 503 484C467.195 484 432.855 469.771 407.541 444.459C382.227 419.146 368 384.805 368 349C368 313.195 382.229 278.855 407.541 253.541C432.854 228.227 467.193 214 503 214ZM467.47 363.803C456.024 363.803 446.745 373.081 446.745 384.526C446.745 395.972 456.024 405.25 467.47 405.25C478.915 405.25 488.193 395.972 488.193 384.526C488.193 373.081 478.915 363.803 467.47 363.803ZM538.521 363.803C527.076 363.803 517.798 373.081 517.798 384.526C517.798 395.972 527.076 405.25 538.521 405.25C549.967 405.25 559.245 395.972 559.245 384.526C559.245 373.081 549.967 363.803 538.521 363.803ZM467.47 292.75C456.024 292.75 446.745 302.028 446.745 313.474C446.745 324.919 456.024 334.197 467.47 334.197C478.915 334.197 488.193 324.919 488.193 313.474C488.193 302.028 478.915 292.75 467.47 292.75ZM538.521 292.75C527.076 292.75 517.798 302.028 517.798 313.474C517.798 324.919 527.076 334.197 538.521 334.197C549.967 334.197 559.245 324.919 559.245 313.474C559.245 302.028 549.967 292.75 538.521 292.75Z" fill="#D72409"/>
<path fill-rule="evenodd" clip-rule="evenodd" d="M695 534C730.804 534 765.144 548.229 790.458 573.541C815.772 598.853 830 633.195 830 669C830 704.805 815.77 739.144 790.458 764.458C765.146 789.772 730.805 804 695 804C659.195 804 624.855 789.77 599.541 764.458C574.227 739.146 560 704.804 560 669C560 633.195 574.229 598.855 599.541 573.541C624.853 548.227 659.193 534 695 534ZM659.47 683.803C648.025 683.803 638.746 693.081 638.746 704.526C638.746 715.971 648.025 725.25 659.47 725.25C670.915 725.25 680.193 715.972 680.193 704.526C680.193 693.081 670.915 683.803 659.47 683.803ZM730.522 683.803C719.077 683.803 709.799 693.081 709.799 704.526C709.799 715.972 719.077 725.25 730.522 725.25C741.968 725.25 751.246 715.972 751.246 704.526C751.246 693.081 741.968 683.803 730.522 683.803ZM659.47 612.75C648.025 612.75 638.746 622.028 638.746 633.474C638.746 644.919 648.025 654.197 659.47 654.197C670.915 654.197 680.193 644.919 680.193 633.474C680.193 622.028 670.915 612.75 659.47 612.75ZM730.522 612.75C719.077 612.75 709.799 622.028 709.799 633.474C709.799 644.919 719.077 654.197 730.522 654.197C741.968 654.197 751.246 644.919 751.246 633.474C751.246 622.028 741.968 612.75 730.522 612.75Z" fill="#D72409"/>
</g>
<defs>
<clipPath id="clip0_21433_535">
<rect width="1024" height="1024" fill="white"/>
</clipPath>
</defs>
</svg>
