<svg width="32" height="32" viewBox="92 198 840 383" fill="none" xmlns="http://www.w3.org/2000/svg">
<path d="M557.294 374.865L443.026 405.483M557.294 374.865L671.562 344.247M557.294 374.865L539.28 307.636M557.294 374.865L575.515 442.866M785.83 313.629L671.562 344.247M785.83 313.629L767.816 246.4M785.83 313.629L804.051 381.63M785.83 313.629L884.359 287.228M328.757 436.101L214.489 466.719M328.757 436.101L443.026 405.483M328.757 436.101L310.743 368.873M328.757 436.101L346.978 504.102M214.489 466.719L191.646 400.785M214.489 466.719L237.54 533.426M214.489 466.719L140.014 486.675M443.026 405.483L434.671 335.666M443.026 405.483L451.587 476.072M671.562 344.247L643.889 279.607M671.562 344.247M699.442 409.66" stroke="url(#paint0_linear_21497_920)" stroke-width="44" stroke-linecap="square" stroke-linejoin="round"/>
<defs>
<linearGradient id="paint0_linear_21497_920" x1="413" y1="555" x2="741" y2="206" gradientUnits="userSpaceOnUse">
<stop stop-color="#D62308"/>
<stop offset="1" stop-color="#FE563C"/>
</linearGradient>
</defs>
</svg>
